<svg xmlns="http://www.w3.org/2000/svg" xmlns:xlink="http://www.w3.org/1999/xlink" width="419" zoomAndPan="magnify" viewBox="0 0 314.25 314.249992" height="419" preserveAspectRatio="xMidYMid meet" version="1.0"><defs><clipPath id="1f8fe05a3e"><path d="M 105 285 L 244 285 L 244 306.964844 L 105 306.964844 Z M 105 285 " clip-rule="nonzero"/></clipPath><clipPath id="8dc1e78526"><path d="M 155 6.183594 L 168 6.183594 L 168 19 L 155 19 Z M 155 6.183594 " clip-rule="nonzero"/></clipPath></defs><g clip-path="url(#1f8fe05a3e)"><path fill="#2085b7" d="M 243.496094 296.171875 C 243.496094 296.527344 243.386719 296.878906 243.164062 297.230469 C 242.941406 297.585938 242.609375 297.933594 242.167969 298.28125 C 241.722656 298.628906 241.175781 298.972656 240.515625 299.308594 C 239.859375 299.648438 239.09375 299.980469 238.226562 300.308594 C 237.359375 300.636719 236.390625 300.957031 235.320312 301.269531 C 234.253906 301.582031 233.089844 301.882812 231.828125 302.179688 C 230.570312 302.472656 229.21875 302.757812 227.78125 303.03125 C 226.34375 303.304688 224.824219 303.566406 223.21875 303.816406 C 221.617188 304.066406 219.9375 304.304688 218.183594 304.527344 C 216.433594 304.753906 214.613281 304.964844 212.726562 305.160156 C 210.84375 305.355469 208.898438 305.539062 206.898438 305.707031 C 204.902344 305.871094 202.851562 306.023438 200.757812 306.160156 C 198.664062 306.292969 196.53125 306.414062 194.359375 306.515625 C 192.191406 306.617188 189.996094 306.703125 187.769531 306.773438 C 185.546875 306.84375 183.304688 306.894531 181.050781 306.929688 C 178.792969 306.964844 176.53125 306.980469 174.265625 306.980469 C 171.996094 306.980469 169.734375 306.964844 167.476562 306.929688 C 165.222656 306.894531 162.980469 306.84375 160.757812 306.773438 C 158.53125 306.703125 156.335938 306.617188 154.167969 306.515625 C 151.996094 306.414062 149.863281 306.292969 147.769531 306.160156 C 145.675781 306.023438 143.628906 305.871094 141.628906 305.707031 C 139.628906 305.539062 137.683594 305.355469 135.800781 305.160156 C 133.914062 304.964844 132.09375 304.753906 130.34375 304.527344 C 128.589844 304.304688 126.910156 304.066406 125.308594 303.816406 C 123.703125 303.566406 122.183594 303.304688 120.746094 303.03125 C 119.308594 302.757812 117.957031 302.472656 116.699219 302.179688 C 115.4375 301.882812 114.273438 301.582031 113.207031 301.269531 C 112.136719 300.957031 111.167969 300.636719 110.300781 300.308594 C 109.433594 299.980469 108.667969 299.648438 108.011719 299.308594 C 107.351562 298.972656 106.804688 298.628906 106.359375 298.28125 C 105.917969 297.933594 105.585938 297.585938 105.363281 297.230469 C 105.140625 296.878906 105.03125 296.527344 105.03125 296.171875 C 105.03125 295.820312 105.140625 295.464844 105.363281 295.113281 C 105.585938 294.761719 105.917969 294.410156 106.359375 294.0625 C 106.804688 293.714844 107.351562 293.375 108.011719 293.035156 C 108.667969 292.695312 109.433594 292.363281 110.300781 292.035156 C 111.167969 291.710938 112.136719 291.390625 113.207031 291.078125 C 114.273438 290.765625 115.4375 290.460938 116.699219 290.167969 C 117.957031 289.875 119.308594 289.589844 120.746094 289.316406 C 122.183594 289.042969 123.703125 288.78125 125.308594 288.53125 C 126.910156 288.277344 128.589844 288.042969 130.34375 287.816406 C 132.09375 287.59375 133.914062 287.382812 135.800781 287.183594 C 137.683594 286.988281 139.628906 286.808594 141.628906 286.640625 C 143.628906 286.472656 145.675781 286.320312 147.769531 286.1875 C 149.863281 286.050781 151.996094 285.933594 154.167969 285.828125 C 156.335938 285.726562 158.53125 285.640625 160.757812 285.570312 C 162.980469 285.503906 165.222656 285.449219 167.476562 285.414062 C 169.734375 285.382812 171.996094 285.363281 174.265625 285.363281 C 176.53125 285.363281 178.792969 285.382812 181.050781 285.414062 C 183.304688 285.449219 185.546875 285.503906 187.769531 285.570312 C 189.996094 285.640625 192.191406 285.726562 194.359375 285.828125 C 196.53125 285.933594 198.664062 286.050781 200.757812 286.1875 C 202.851562 286.320312 204.902344 286.472656 206.898438 286.640625 C 208.898438 286.808594 210.84375 286.988281 212.726562 287.183594 C 214.613281 287.382812 216.433594 287.59375 218.183594 287.816406 C 219.9375 288.042969 221.617188 288.277344 223.21875 288.53125 C 224.824219 288.78125 226.34375 289.042969 227.78125 289.316406 C 229.21875 289.589844 230.570312 289.875 231.828125 290.167969 C 233.089844 290.460938 234.253906 290.765625 235.320312 291.078125 C 236.390625 291.390625 237.359375 291.710938 238.226562 292.035156 C 239.09375 292.363281 239.859375 292.695312 240.515625 293.035156 C 241.175781 293.375 241.722656 293.714844 242.167969 294.0625 C 242.609375 294.410156 242.941406 294.761719 243.164062 295.113281 C 243.386719 295.464844 243.496094 295.820312 243.496094 296.171875 Z M 243.496094 296.171875 " fill-opacity="1" fill-rule="nonzero"/></g><path fill="#d5e9f2" d="M 224.019531 72.191406 C 206.03125 46.035156 162.28125 46.035156 162.28125 46.035156 C 162.28125 46.035156 118.519531 46.035156 100.535156 72.191406 C 84.023438 96.199219 84.179688 129.003906 84.179688 129.003906 L 100.125 149.4375 L 224.429688 149.4375 L 240.375 129.003906 C 240.375 129.003906 240.53125 96.199219 224.019531 72.191406 Z M 224.019531 72.191406 " fill-opacity="1" fill-rule="nonzero"/><path fill="#a8d7e9" d="M 224.042969 72.191406 C 216.988281 61.945312 205.980469 55.699219 195.195312 51.910156 C 200.773438 55.382812 205.839844 59.789062 209.730469 65.445312 C 226.246094 89.457031 226.101562 122.257812 226.101562 122.257812 L 210.152344 142.691406 L 94.890625 142.691406 L 100.148438 149.4375 L 224.453125 149.4375 L 240.398438 129.003906 C 240.398438 129.003906 240.554688 96.199219 224.042969 72.191406 Z M 224.042969 72.191406 " fill-opacity="1" fill-rule="nonzero"/><path fill="#002b43" d="M 201.9375 77.507812 C 185.175781 64.835938 139.371094 64.835938 122.617188 77.507812 C 104.414062 91.265625 105.035156 124.101562 105.035156 124.101562 L 219.519531 124.101562 C 219.519531 124.101562 220.140625 91.261719 201.9375 77.507812 Z M 201.9375 77.507812 " fill-opacity="1" fill-rule="nonzero"/><path fill="#000f16" d="M 105.511719 124.097656 C 106.632812 113.386719 110.351562 95.457031 122.617188 86.1875 C 139.378906 73.519531 185.175781 73.519531 201.9375 86.1875 C 214.203125 95.457031 217.921875 113.378906 219.042969 124.097656 L 219.519531 124.097656 C 219.519531 124.097656 220.140625 91.261719 201.9375 77.503906 C 185.175781 64.835938 139.371094 64.835938 122.617188 77.507812 C 104.414062 91.265625 105.035156 124.101562 105.035156 124.101562 Z M 105.511719 124.097656 " fill-opacity="1" fill-rule="nonzero"/><path fill="#d5e9f2" d="M 148.578125 39.902344 L 175.980469 39.902344 C 176.304688 39.902344 176.617188 39.964844 176.917969 40.089844 C 177.21875 40.214844 177.484375 40.390625 177.710938 40.621094 C 177.941406 40.851562 178.121094 41.117188 178.242188 41.417969 C 178.367188 41.714844 178.429688 42.027344 178.429688 42.355469 L 178.429688 50.941406 C 178.429688 51.265625 178.367188 51.578125 178.242188 51.878906 C 178.121094 52.179688 177.941406 52.445312 177.710938 52.671875 C 177.484375 52.902344 177.21875 53.082031 176.917969 53.203125 C 176.617188 53.328125 176.304688 53.390625 175.980469 53.390625 L 148.578125 53.390625 C 148.253906 53.390625 147.941406 53.328125 147.640625 53.203125 C 147.339844 53.082031 147.074219 52.902344 146.847656 52.671875 C 146.617188 52.445312 146.4375 52.179688 146.316406 51.878906 C 146.191406 51.578125 146.128906 51.265625 146.128906 50.941406 L 146.128906 42.355469 C 146.128906 42.027344 146.191406 41.714844 146.316406 41.417969 C 146.4375 41.117188 146.617188 40.851562 146.847656 40.621094 C 147.074219 40.390625 147.339844 40.214844 147.640625 40.089844 C 147.941406 39.964844 148.253906 39.902344 148.578125 39.902344 Z M 148.578125 39.902344 " fill-opacity="1" fill-rule="nonzero"/><path fill="#d5e9f2" d="M 154.984375 46.441406 L 158.664062 12.109375 L 163.574219 12.109375 L 169.574219 46.644531 Z M 154.984375 46.441406 " fill-opacity="1" fill-rule="nonzero"/><g clip-path="url(#8dc1e78526)"><path fill="#d5e9f2" d="M 167.183594 12.09375 C 167.183594 12.484375 167.144531 12.867188 167.070312 13.246094 C 166.992188 13.628906 166.882812 13.996094 166.734375 14.355469 C 166.585938 14.714844 166.402344 15.054688 166.1875 15.378906 C 165.972656 15.699219 165.726562 16 165.453125 16.273438 C 165.175781 16.546875 164.878906 16.792969 164.554688 17.007812 C 164.234375 17.226562 163.890625 17.40625 163.53125 17.554688 C 163.175781 17.703125 162.804688 17.816406 162.421875 17.890625 C 162.042969 17.96875 161.660156 18.003906 161.269531 18.003906 C 160.882812 18.003906 160.496094 17.96875 160.117188 17.890625 C 159.734375 17.816406 159.367188 17.703125 159.007812 17.554688 C 158.648438 17.40625 158.308594 17.226562 157.984375 17.007812 C 157.660156 16.792969 157.363281 16.546875 157.089844 16.273438 C 156.8125 16 156.570312 15.699219 156.351562 15.378906 C 156.136719 15.054688 155.957031 14.714844 155.808594 14.355469 C 155.660156 13.996094 155.546875 13.628906 155.46875 13.246094 C 155.394531 12.867188 155.355469 12.484375 155.355469 12.09375 C 155.355469 11.707031 155.394531 11.320312 155.46875 10.941406 C 155.546875 10.5625 155.660156 10.191406 155.808594 9.832031 C 155.957031 9.472656 156.136719 9.132812 156.351562 8.8125 C 156.570312 8.488281 156.8125 8.1875 157.089844 7.914062 C 157.363281 7.640625 157.660156 7.394531 157.984375 7.179688 C 158.308594 6.964844 158.648438 6.78125 159.007812 6.632812 C 159.367188 6.484375 159.734375 6.371094 160.117188 6.296875 C 160.496094 6.222656 160.882812 6.183594 161.269531 6.183594 C 161.660156 6.183594 162.042969 6.222656 162.421875 6.296875 C 162.804688 6.371094 163.175781 6.484375 163.53125 6.632812 C 163.890625 6.78125 164.234375 6.964844 164.554688 7.179688 C 164.878906 7.394531 165.175781 7.640625 165.453125 7.914062 C 165.726562 8.1875 165.972656 8.488281 166.1875 8.8125 C 166.402344 9.132812 166.585938 9.472656 166.734375 9.832031 C 166.882812 10.191406 166.992188 10.5625 167.070312 10.941406 C 167.144531 11.320312 167.183594 11.707031 167.183594 12.09375 Z M 167.183594 12.09375 " fill-opacity="1" fill-rule="nonzero"/></g><path fill="#a8d7e9" d="M 164.957031 7.480469 C 165.066406 7.707031 165.160156 7.9375 165.238281 8.171875 C 165.320312 8.410156 165.382812 8.652344 165.433594 8.894531 C 165.480469 9.140625 165.515625 9.386719 165.53125 9.636719 C 165.550781 9.886719 165.550781 10.136719 165.539062 10.386719 C 165.523438 10.636719 165.496094 10.882812 165.449219 11.128906 C 165.40625 11.375 165.34375 11.617188 165.269531 11.855469 C 165.195312 12.09375 165.101562 12.328125 165 12.554688 C 164.894531 12.78125 164.773438 13 164.640625 13.210938 C 164.507812 13.421875 164.363281 13.625 164.203125 13.820312 C 164.046875 14.011719 163.875 14.195312 163.695312 14.367188 C 163.511719 14.539062 163.320312 14.699219 163.121094 14.847656 C 162.917969 14.992188 162.707031 15.128906 162.488281 15.25 C 162.269531 15.371094 162.042969 15.476562 161.8125 15.570312 C 161.578125 15.664062 161.34375 15.738281 161.101562 15.800781 C 160.859375 15.867188 160.613281 15.914062 160.367188 15.945312 C 160.117188 15.976562 159.867188 15.992188 159.617188 15.992188 C 158.234375 15.992188 157.007812 15.558594 155.929688 14.695312 C 156.125 15.089844 156.363281 15.457031 156.640625 15.800781 C 156.921875 16.144531 157.234375 16.449219 157.582031 16.722656 C 157.929688 16.992188 158.304688 17.222656 158.703125 17.410156 C 159.101562 17.597656 159.515625 17.742188 159.949219 17.835938 C 160.378906 17.933594 160.816406 17.976562 161.257812 17.976562 C 161.699219 17.972656 162.132812 17.921875 162.5625 17.824219 C 162.992188 17.722656 163.40625 17.574219 163.804688 17.382812 C 164.199219 17.191406 164.570312 16.957031 164.917969 16.679688 C 165.261719 16.40625 165.570312 16.097656 165.847656 15.75 C 166.121094 15.40625 166.355469 15.035156 166.546875 14.636719 C 166.738281 14.242188 166.886719 13.828125 166.984375 13.398438 C 167.085938 12.96875 167.136719 12.53125 167.136719 12.089844 C 167.140625 11.648438 167.09375 11.214844 166.996094 10.78125 C 166.902344 10.351562 166.757812 9.9375 166.570312 9.539062 C 166.382812 9.140625 166.152344 8.765625 165.878906 8.417969 C 165.605469 8.070312 165.296875 7.757812 164.957031 7.480469 Z M 164.957031 7.480469 " fill-opacity="1" fill-rule="nonzero"/><path fill="#a8d7e9" d="M 100.125 149.4375 L 224.429688 149.4375 L 240.375 129.003906 L 84.179688 129.003906 Z M 100.125 149.4375 " fill-opacity="1" fill-rule="nonzero"/><path fill="#a8d7e9" d="M 178.429688 46.925781 C 178.429688 47.789062 177.878906 48.5 177.199219 48.5 L 163.503906 48.5 C 162.828125 48.5 162.28125 47.804688 162.28125 46.925781 L 162.28125 41.464844 C 162.28125 40.601562 162.828125 39.886719 163.503906 39.886719 L 177.214844 39.886719 C 177.894531 39.886719 178.445312 40.585938 178.445312 41.464844 Z M 178.429688 46.925781 " fill-opacity="1" fill-rule="nonzero"/><path fill="#ffffff" d="M 137.792969 57.308594 C 135.804688 53.496094 126.789062 55.675781 123.84375 57.066406 C 121.4375 58.203125 117.082031 60.722656 114.304688 63.371094 C 112.078125 65.148438 110.121094 67.179688 108.425781 69.46875 C 107.003906 71.378906 104.324219 75.316406 106.058594 77.828125 C 107.949219 80.585938 111.140625 78.191406 112.730469 76.601562 C 116.855469 72.453125 120.027344 68.011719 125.625 65.480469 C 128.375 64.253906 140.160156 61.800781 137.792969 57.308594 Z M 137.792969 57.308594 " fill-opacity="1" fill-rule="nonzero"/><path fill="#ffffff" d="M 158.894531 8.695312 C 156.101562 9.367188 157.171875 15.199219 160.605469 12.058594 C 163.335938 9.566406 160.472656 7.992188 158.894531 8.695312 Z M 158.894531 8.695312 " fill-opacity="1" fill-rule="nonzero"/><path fill="#d5e9f2" d="M 246.992188 195.722656 L 222.710938 153.851562 L 101.84375 153.851562 L 77.554688 195.722656 C 77.554688 195.722656 78.589844 213.175781 84.453125 229.128906 C 93.460938 253.648438 102.046875 263.460938 102.046875 263.460938 L 131.777344 274.929688 L 162.007812 277.707031 L 162.007812 277.757812 C 162.007812 277.757812 162.207031 277.730469 162.28125 277.730469 C 162.351562 277.730469 162.546875 277.757812 162.546875 277.757812 L 162.546875 277.707031 L 192.777344 274.929688 L 222.507812 263.453125 C 222.507812 263.453125 233.296875 249.554688 240.101562 229.121094 C 245.476562 213.011719 246.992188 195.722656 246.992188 195.722656 Z M 246.992188 195.722656 " fill-opacity="1" fill-rule="nonzero"/><path fill="#a8d7e9" d="M 222.710938 153.851562 L 194.089844 153.851562 L 218.382812 195.722656 C 218.382812 195.722656 216.851562 213.003906 211.480469 229.128906 C 204.675781 249.5625 201.625 257.703125 193.886719 263.460938 C 187.496094 268.230469 164.15625 274.929688 164.15625 274.929688 L 147.964844 276.417969 L 162.007812 277.707031 L 162.007812 277.757812 C 162.007812 277.757812 162.207031 277.730469 162.28125 277.730469 C 162.351562 277.730469 162.546875 277.757812 162.546875 277.757812 L 162.546875 277.707031 L 192.777344 274.929688 L 222.507812 263.453125 C 222.507812 263.453125 233.296875 249.554688 240.101562 229.121094 C 245.476562 213.011719 246.992188 195.722656 246.992188 195.722656 Z M 222.710938 153.851562 " fill-opacity="1" fill-rule="nonzero"/><path fill="#a8d7e9" d="M 77.554688 195.730469 L 247.007812 195.730469 L 240.398438 208.289062 Z M 77.554688 195.730469 " fill-opacity="1" fill-rule="nonzero"/><path fill="#ffffff" d="M 111.566406 223.503906 C 111.085938 217.429688 115.238281 209.050781 108.292969 205.839844 C 104.746094 204.191406 98.707031 203.515625 95.949219 207.058594 C 94.925781 208.4375 94.382812 209.984375 94.328125 211.703125 C 93.328125 216.039062 95.667969 222.378906 96.753906 226.28125 C 98.039062 230.859375 102.492188 246.945312 110.6875 242.5625 C 116.277344 239.558594 111.925781 228.003906 111.566406 223.503906 Z M 111.566406 223.503906 " fill-opacity="1" fill-rule="nonzero"/><path fill="#ffffff" d="M 120.480469 162.597656 C 116.792969 157.339844 111.609375 159.09375 107.917969 162.90625 C 99.703125 167.902344 90.96875 188.320312 103.402344 190.316406 C 110.558594 191.46875 112.753906 182.75 115.175781 178.039062 C 117.402344 173.714844 124.097656 167.746094 120.480469 162.597656 Z M 120.480469 162.597656 " fill-opacity="1" fill-rule="nonzero"/><path fill="#d5e9f2" d="M 97.1875 153.851562 C 97.1875 153.851562 43.105469 146.074219 34.96875 149.4375 C 26.832031 152.804688 24.226562 164.460938 44 176.371094 C 63.1875 187.933594 74.355469 191.082031 74.355469 191.082031 Z M 97.1875 153.851562 " fill-opacity="1" fill-rule="nonzero"/><path fill="#a8d7e9" d="M 34.335938 149.4375 C 35.148438 149.097656 43.160156 148.296875 44.78125 148.21875 C 47.429688 154.316406 37.53125 160.371094 49.703125 167.707031 C 62.875 175.644531 72.878906 180.214844 82.03125 178.570312 L 74.363281 191.082031 C 74.363281 191.082031 63.1875 187.929688 44.007812 176.371094 C 24.226562 164.460938 26.199219 152.820312 34.335938 149.4375 Z M 34.335938 149.4375 " fill-opacity="1" fill-rule="nonzero"/><path fill="#d5e9f2" d="M 101.703125 267.082031 C 101.703125 267.082031 112.492188 295.21875 121.53125 296.140625 C 130.570312 297.0625 130.835938 277.773438 130.835938 277.773438 Z M 101.703125 267.082031 " fill-opacity="1" fill-rule="nonzero"/><path fill="#a8d7e9" d="M 123.5625 274.992188 C 123.460938 277.722656 122.625 291.039062 116.269531 292.726562 C 118.128906 294.664062 120.019531 295.957031 121.839844 296.140625 C 130.878906 297.058594 131.144531 277.773438 131.144531 277.773438 Z M 123.5625 274.992188 " fill-opacity="1" fill-rule="nonzero"/><path fill="#d5e9f2" d="M 195.84375 277.773438 C 195.84375 277.773438 209.640625 298.972656 227.429688 294.546875 C 234.867188 292.6875 223.136719 267.082031 223.136719 267.082031 Z M 195.84375 277.773438 " fill-opacity="1" fill-rule="nonzero"/><path fill="#a8d7e9" d="M 223.136719 267.082031 L 215.730469 269.984375 C 218.714844 277.472656 223.425781 291.355469 218.027344 292.703125 C 216.617188 293.054688 215.1875 293.253906 213.738281 293.300781 C 217.851562 295.027344 222.488281 295.773438 227.429688 294.546875 C 234.867188 292.6875 223.136719 267.082031 223.136719 267.082031 Z M 223.136719 267.082031 " fill-opacity="1" fill-rule="nonzero"/><path fill="#3aedb1" d="M 178.453125 105.964844 C 178.191406 105.960938 177.960938 106.046875 177.769531 106.230469 C 177.578125 106.410156 177.476562 106.632812 177.46875 106.894531 C 177.46875 106.957031 177.300781 111.253906 174.5625 113.507812 C 171.953125 115.660156 167.21875 116.382812 164.921875 116.375 C 162.773438 116.46875 157.886719 115.660156 155.273438 113.507812 C 152.542969 111.253906 152.367188 106.957031 152.367188 106.894531 C 152.363281 106.632812 152.261719 106.40625 152.070312 106.226562 C 151.875 106.042969 151.648438 105.957031 151.382812 105.964844 C 151.117188 105.972656 150.894531 106.070312 150.710938 106.265625 C 150.53125 106.457031 150.445312 106.6875 150.453125 106.953125 C 150.453125 107.164062 150.632812 112.164062 154.054688 114.984375 C 157.542969 117.863281 162.046875 118.300781 164.464844 118.300781 C 167.347656 118.300781 172.296875 117.863281 175.785156 114.984375 C 179.203125 112.164062 179.378906 107.164062 179.386719 106.953125 C 179.394531 106.6875 179.308594 106.457031 179.125 106.265625 C 178.941406 106.074219 178.71875 105.972656 178.453125 105.964844 Z M 178.453125 105.964844 " fill-opacity="1" fill-rule="nonzero"/><path fill="#3aedb1" d="M 143.734375 97.839844 C 143.554688 97.839844 143.378906 97.808594 143.214844 97.738281 C 143.046875 97.667969 142.898438 97.570312 142.769531 97.445312 C 142.640625 97.316406 142.539062 97.171875 142.46875 97.003906 C 142.398438 96.839844 142.363281 96.664062 142.359375 96.484375 C 142.277344 95.300781 141.925781 94.199219 141.300781 93.1875 C 139.996094 91.113281 137.6875 90.0625 134.4375 90.0625 L 134.375 90.0625 C 127.363281 90.09375 126.402344 95.972656 126.363281 96.21875 C 126.335938 96.398438 126.277344 96.566406 126.183594 96.722656 C 126.089844 96.878906 125.96875 97.011719 125.824219 97.121094 C 125.679688 97.226562 125.515625 97.304688 125.339844 97.351562 C 125.164062 97.394531 124.988281 97.402344 124.804688 97.378906 C 124.625 97.351562 124.457031 97.292969 124.300781 97.199219 C 124.144531 97.105469 124.011719 96.988281 123.902344 96.839844 C 123.796875 96.695312 123.71875 96.535156 123.671875 96.359375 C 123.628906 96.179688 123.621094 96.003906 123.644531 95.824219 C 124.085938 92.902344 126.894531 87.367188 134.363281 87.335938 L 134.441406 87.335938 C 144.882812 87.335938 145.105469 96.378906 145.105469 96.46875 C 145.109375 96.652344 145.078125 96.828125 145.007812 96.996094 C 144.941406 97.164062 144.84375 97.3125 144.714844 97.445312 C 144.589844 97.574219 144.441406 97.675781 144.273438 97.746094 C 144.105469 97.816406 143.933594 97.855469 143.75 97.855469 Z M 143.734375 97.839844 " fill-opacity="1" fill-rule="nonzero"/><path fill="#3aedb1" d="M 199.582031 97.839844 C 199.398438 97.839844 199.226562 97.808594 199.058594 97.738281 C 198.890625 97.671875 198.742188 97.574219 198.613281 97.445312 C 198.488281 97.320312 198.386719 97.171875 198.316406 97.007812 C 198.246094 96.839844 198.210938 96.664062 198.207031 96.484375 C 198.125 95.300781 197.769531 94.199219 197.148438 93.1875 C 195.84375 91.113281 193.539062 90.0625 190.289062 90.0625 L 190.226562 90.0625 C 183.214844 90.09375 182.25 95.972656 182.210938 96.21875 C 182.183594 96.398438 182.125 96.566406 182.03125 96.722656 C 181.9375 96.878906 181.820312 97.011719 181.675781 97.121094 C 181.527344 97.226562 181.367188 97.304688 181.191406 97.351562 C 181.015625 97.394531 180.835938 97.402344 180.65625 97.378906 C 180.476562 97.351562 180.308594 97.292969 180.152344 97.199219 C 179.996094 97.105469 179.863281 96.988281 179.753906 96.839844 C 179.644531 96.695312 179.566406 96.535156 179.523438 96.359375 C 179.476562 96.179688 179.46875 96.003906 179.496094 95.824219 C 179.933594 92.875 182.734375 87.359375 190.226562 87.320312 L 190.304688 87.320312 C 200.742188 87.320312 200.949219 96.363281 200.949219 96.453125 C 200.949219 96.636719 200.917969 96.8125 200.851562 96.980469 C 200.78125 97.148438 200.683594 97.296875 200.558594 97.429688 C 200.429688 97.558594 200.285156 97.660156 200.117188 97.730469 C 199.949219 97.800781 199.773438 97.839844 199.59375 97.839844 Z M 199.582031 97.839844 " fill-opacity="1" fill-rule="nonzero"/><path fill="#2a56f4" d="M 87.355469 113.019531 L 22.757812 166.421875 L 22.820312 166.492188 C 19.0625 170.453125 18.480469 176.28125 21.636719 180.121094 C 24.789062 183.957031 30.65625 184.453125 35.25 181.523438 L 35.308594 181.59375 L 99.910156 128.191406 Z M 87.355469 113.019531 " fill-opacity="1" fill-rule="nonzero"/><path fill="#0643f2" d="M 97.464844 125.1875 L 37.726562 174.554688 L 37.660156 174.484375 C 33.070312 177.429688 27.226562 176.917969 24.050781 173.082031 C 23.375 172.257812 22.863281 171.34375 22.507812 170.335938 C 22.15625 169.332031 21.984375 168.296875 22 167.230469 C 18.9375 171.136719 18.628906 176.414062 21.582031 179.984375 C 24.753906 183.824219 30.597656 184.320312 35.191406 181.382812 L 35.25 181.460938 L 99.851562 128.054688 Z M 97.464844 125.1875 " fill-opacity="1" fill-rule="nonzero"/><path fill="#2a56f4" d="M 154.785156 64.324219 C 155.871094 65.40625 156.898438 66.542969 157.871094 67.726562 C 158.84375 68.914062 159.757812 70.144531 160.609375 71.417969 C 161.464844 72.695312 162.25 74.007812 162.972656 75.363281 C 163.699219 76.714844 164.351562 78.097656 164.941406 79.515625 C 165.527344 80.933594 166.042969 82.375 166.488281 83.84375 C 166.933594 85.3125 167.304688 86.796875 167.605469 88.300781 C 167.90625 89.804688 168.128906 91.320312 168.28125 92.847656 C 168.429688 94.371094 168.507812 95.902344 168.507812 97.4375 C 168.507812 98.96875 168.429688 100.5 168.28125 102.027344 C 168.128906 103.554688 167.90625 105.070312 167.605469 106.574219 C 167.304688 108.078125 166.933594 109.5625 166.488281 111.03125 C 166.042969 112.5 165.527344 113.941406 164.941406 115.359375 C 164.351562 116.773438 163.699219 118.160156 162.972656 119.511719 C 162.25 120.863281 161.464844 122.179688 160.609375 123.453125 C 159.757812 124.730469 158.84375 125.960938 157.871094 127.144531 C 156.898438 128.332031 155.871094 129.464844 154.785156 130.550781 C 153.699219 131.632812 152.5625 132.664062 151.378906 133.636719 C 150.191406 134.609375 148.960938 135.523438 147.683594 136.375 C 146.410156 137.226562 145.09375 138.015625 143.742188 138.738281 C 142.386719 139.460938 141.003906 140.113281 139.585938 140.703125 C 138.167969 141.289062 136.726562 141.804688 135.257812 142.25 C 133.789062 142.695312 132.300781 143.066406 130.796875 143.367188 C 129.292969 143.664062 127.777344 143.890625 126.25 144.039062 C 124.722656 144.191406 123.191406 144.265625 121.65625 144.265625 C 120.121094 144.265625 118.589844 144.191406 117.066406 144.039062 C 115.539062 143.890625 114.023438 143.664062 112.515625 143.367188 C 111.011719 143.066406 109.523438 142.695312 108.058594 142.25 C 106.589844 141.804688 105.144531 141.289062 103.726562 140.703125 C 102.308594 140.113281 100.925781 139.460938 99.570312 138.738281 C 98.21875 138.015625 96.902344 137.226562 95.628906 136.375 C 94.351562 135.523438 93.121094 134.609375 91.9375 133.636719 C 90.75 132.664062 89.613281 131.632812 88.527344 130.550781 C 87.445312 129.464844 86.414062 128.332031 85.441406 127.144531 C 84.46875 125.960938 83.554688 124.730469 82.703125 123.453125 C 81.851562 122.179688 81.0625 120.863281 80.339844 119.511719 C 79.617188 118.160156 78.960938 116.773438 78.375 115.359375 C 77.785156 113.941406 77.269531 112.5 76.824219 111.03125 C 76.378906 109.5625 76.007812 108.078125 75.707031 106.574219 C 75.40625 105.070312 75.183594 103.554688 75.03125 102.027344 C 74.882812 100.5 74.808594 98.96875 74.808594 97.4375 C 74.808594 95.902344 74.882812 94.371094 75.03125 92.847656 C 75.183594 91.320312 75.40625 89.804688 75.707031 88.300781 C 76.007812 86.796875 76.378906 85.3125 76.824219 83.84375 C 77.269531 82.375 77.785156 80.933594 78.375 79.515625 C 78.960938 78.097656 79.617188 76.714844 80.339844 75.363281 C 81.0625 74.007812 81.851562 72.695312 82.703125 71.417969 C 83.554688 70.144531 84.46875 68.914062 85.441406 67.726562 C 86.414062 66.542969 87.445312 65.40625 88.527344 64.324219 C 89.613281 63.238281 90.75 62.210938 91.9375 61.238281 C 93.121094 60.265625 94.351562 59.351562 95.628906 58.5 C 96.902344 57.648438 98.21875 56.859375 99.570312 56.136719 C 100.925781 55.414062 102.308594 54.757812 103.726562 54.171875 C 105.144531 53.585938 106.589844 53.070312 108.058594 52.625 C 109.523438 52.179688 111.011719 51.804688 112.515625 51.507812 C 114.023438 51.207031 115.539062 50.984375 117.066406 50.832031 C 118.589844 50.683594 120.121094 50.605469 121.65625 50.605469 C 123.191406 50.605469 124.722656 50.683594 126.25 50.832031 C 127.777344 50.984375 129.292969 51.207031 130.796875 51.507812 C 132.300781 51.804688 133.789062 52.179688 135.257812 52.625 C 136.726562 53.070312 138.167969 53.585938 139.585938 54.171875 C 141.003906 54.757812 142.386719 55.414062 143.742188 56.136719 C 145.09375 56.859375 146.410156 57.648438 147.683594 58.5 C 148.960938 59.351562 150.191406 60.265625 151.378906 61.238281 C 152.5625 62.210938 153.699219 63.238281 154.785156 64.324219 Z M 154.785156 64.324219 " fill-opacity="1" fill-rule="nonzero"/><path fill="#0643f2" d="M 166.644531 84.019531 C 166.921875 85.476562 167.128906 86.941406 167.265625 88.417969 C 167.40625 89.894531 167.472656 91.371094 167.472656 92.851562 C 167.46875 94.335938 167.398438 95.8125 167.257812 97.289062 C 167.113281 98.761719 166.902344 100.226562 166.621094 101.683594 C 166.339844 103.136719 165.988281 104.578125 165.570312 105.996094 C 165.152344 107.417969 164.667969 108.816406 164.117188 110.195312 C 163.566406 111.570312 162.953125 112.917969 162.273438 114.234375 C 161.597656 115.550781 160.855469 116.832031 160.054688 118.082031 C 159.257812 119.328125 158.398438 120.535156 157.484375 121.699219 C 156.570312 122.867188 155.601562 123.988281 154.578125 125.0625 C 153.558594 126.136719 152.488281 127.15625 151.371094 128.128906 C 150.25 129.101562 149.089844 130.019531 147.882812 130.882812 C 146.679688 131.746094 145.433594 132.550781 144.152344 133.292969 C 142.871094 134.039062 141.558594 134.71875 140.210938 135.339844 C 138.863281 135.960938 137.492188 136.515625 136.09375 137.003906 C 134.691406 137.492188 133.273438 137.914062 131.835938 138.269531 C 130.394531 138.625 128.941406 138.910156 127.476562 139.128906 C 126.011719 139.34375 124.535156 139.492188 123.054688 139.570312 C 121.574219 139.648438 120.09375 139.65625 118.613281 139.589844 C 117.132812 139.527344 115.65625 139.394531 114.191406 139.191406 C 112.722656 138.988281 111.265625 138.71875 109.824219 138.375 C 108.378906 138.035156 106.957031 137.625 105.554688 137.148438 C 104.148438 136.671875 102.769531 136.132812 101.417969 135.523438 C 100.066406 134.917969 98.746094 134.25 97.457031 133.515625 C 96.167969 132.785156 94.917969 131.992188 93.703125 131.140625 C 92.488281 130.292969 91.320312 129.386719 90.191406 128.421875 C 89.0625 127.460938 87.984375 126.449219 86.953125 125.382812 C 85.921875 124.320312 84.941406 123.210938 84.015625 122.050781 C 83.089844 120.894531 82.222656 119.695312 81.410156 118.457031 C 80.597656 117.21875 79.84375 115.941406 79.15625 114.632812 C 78.464844 113.320312 77.835938 111.980469 77.273438 110.609375 C 76.707031 109.238281 76.210938 107.84375 75.777344 106.425781 C 76.078125 107.984375 76.457031 109.519531 76.910156 111.039062 C 77.367188 112.554688 77.898438 114.046875 78.503906 115.511719 C 79.113281 116.976562 79.789062 118.40625 80.542969 119.800781 C 81.292969 121.195312 82.117188 122.550781 83.003906 123.859375 C 83.894531 125.171875 84.847656 126.4375 85.867188 127.652344 C 86.882812 128.867188 87.960938 130.027344 89.097656 131.132812 C 90.230469 132.238281 91.421875 133.285156 92.664062 134.269531 C 93.902344 135.253906 95.191406 136.175781 96.527344 137.027344 C 97.863281 137.882812 99.238281 138.667969 100.652344 139.382812 C 102.066406 140.097656 103.515625 140.738281 104.996094 141.308594 C 106.476562 141.875 107.980469 142.367188 109.511719 142.78125 C 111.039062 143.199219 112.585938 143.535156 114.152344 143.792969 C 115.714844 144.050781 117.289062 144.230469 118.871094 144.328125 C 120.453125 144.429688 122.039062 144.445312 123.621094 144.386719 C 125.207031 144.324219 126.78125 144.183594 128.351562 143.960938 C 129.921875 143.738281 131.476562 143.4375 133.015625 143.058594 C 134.554688 142.679688 136.070312 142.222656 137.566406 141.6875 C 139.058594 141.15625 140.519531 140.546875 141.949219 139.867188 C 143.382812 139.183594 144.773438 138.429688 146.128906 137.609375 C 147.484375 136.785156 148.792969 135.894531 150.058594 134.941406 C 151.324219 133.984375 152.535156 132.964844 153.699219 131.886719 C 154.859375 130.808594 155.960938 129.671875 157.007812 128.480469 C 158.054688 127.292969 159.035156 126.050781 159.957031 124.757812 C 160.875 123.46875 161.730469 122.136719 162.511719 120.757812 C 163.296875 119.378906 164.011719 117.96875 164.652344 116.519531 C 165.292969 115.070312 165.859375 113.589844 166.347656 112.082031 C 166.839844 110.578125 167.253906 109.046875 167.589844 107.5 C 167.925781 105.949219 168.179688 104.390625 168.359375 102.8125 C 168.535156 101.238281 168.632812 99.660156 168.648438 98.074219 C 168.664062 96.492188 168.601562 94.910156 168.457031 93.332031 C 168.3125 91.753906 168.089844 90.183594 167.785156 88.628906 C 167.484375 87.074219 167.101562 85.539062 166.644531 84.019531 Z M 166.644531 84.019531 " fill-opacity="1" fill-rule="nonzero"/><path fill="#0643f2" d="M 145.679688 122.867188 C 144.722656 123.660156 143.726562 124.402344 142.699219 125.09375 C 141.667969 125.789062 140.605469 126.429688 139.511719 127.019531 C 138.417969 127.609375 137.300781 128.144531 136.15625 128.621094 C 135.007812 129.101562 133.84375 129.523438 132.65625 129.890625 C 131.46875 130.253906 130.265625 130.558594 129.046875 130.808594 C 127.832031 131.054688 126.605469 131.242188 125.367188 131.367188 C 124.132812 131.492188 122.894531 131.558594 121.652344 131.5625 C 120.410156 131.570312 119.171875 131.511719 117.933594 131.394531 C 116.699219 131.277344 115.46875 131.101562 114.25 130.863281 C 113.03125 130.625 111.828125 130.328125 110.636719 129.972656 C 109.449219 129.617188 108.277344 129.203125 107.128906 128.734375 C 105.980469 128.261719 104.855469 127.738281 103.757812 127.15625 C 102.660156 126.574219 101.59375 125.941406 100.558594 125.253906 C 99.523438 124.570312 98.523438 123.835938 97.5625 123.050781 C 96.597656 122.265625 95.675781 121.4375 94.792969 120.5625 C 93.910156 119.6875 93.074219 118.773438 92.285156 117.816406 C 91.492188 116.859375 90.75 115.867188 90.054688 114.835938 C 89.363281 113.808594 88.71875 112.746094 88.128906 111.652344 C 87.539062 110.558594 87.003906 109.441406 86.527344 108.296875 C 86.046875 107.152344 85.625 105.984375 85.257812 104.796875 C 84.894531 103.609375 84.585938 102.410156 84.339844 101.191406 C 84.09375 99.976562 83.90625 98.75 83.78125 97.515625 C 83.652344 96.28125 83.589844 95.042969 83.582031 93.800781 C 83.578125 92.558594 83.636719 91.320312 83.753906 90.082031 C 83.871094 88.847656 84.046875 87.621094 84.285156 86.402344 C 84.523438 85.183594 84.820312 83.980469 85.175781 82.789062 C 85.53125 81.601562 85.945312 80.429688 86.414062 79.28125 C 86.886719 78.132812 87.414062 77.011719 87.992188 75.914062 C 88.574219 74.816406 89.210938 73.75 89.894531 72.714844 C 90.582031 71.679688 91.316406 70.679688 92.101562 69.71875 C 92.886719 68.757812 93.714844 67.835938 94.589844 66.953125 C 95.464844 66.070312 96.378906 65.234375 97.339844 64.445312 C 98.296875 63.652344 99.289062 62.910156 100.320312 62.214844 C 101.347656 61.523438 102.410156 60.882812 103.503906 60.292969 C 104.597656 59.703125 105.714844 59.167969 106.863281 58.6875 C 108.007812 58.210938 109.175781 57.785156 110.363281 57.421875 C 111.546875 57.058594 112.75 56.75 113.96875 56.503906 C 115.183594 56.257812 116.410156 56.070312 117.648438 55.945312 C 118.882812 55.820312 120.121094 55.753906 121.363281 55.75 C 122.605469 55.742188 123.84375 55.800781 125.082031 55.917969 C 126.320312 56.035156 127.546875 56.210938 128.765625 56.449219 C 129.984375 56.6875 131.1875 56.984375 132.378906 57.339844 C 133.570312 57.695312 134.738281 58.109375 135.886719 58.578125 C 137.039062 59.050781 138.160156 59.574219 139.257812 60.15625 C 140.355469 60.738281 141.421875 61.371094 142.457031 62.058594 C 143.492188 62.742188 144.492188 63.476562 145.457031 64.261719 C 146.417969 65.046875 147.339844 65.875 148.222656 66.75 C 149.105469 67.625 149.941406 68.539062 150.734375 69.496094 C 151.523438 70.453125 152.265625 71.445312 152.960938 72.476562 C 153.65625 73.503906 154.296875 74.566406 154.886719 75.660156 C 155.476562 76.753906 156.011719 77.871094 156.488281 79.015625 C 156.96875 80.160156 157.390625 81.328125 157.757812 82.515625 C 158.121094 83.699219 158.429688 84.902344 158.675781 86.121094 C 158.921875 87.335938 159.109375 88.5625 159.234375 89.796875 C 159.363281 91.03125 159.425781 92.269531 159.433594 93.511719 C 159.4375 94.753906 159.378906 95.992188 159.261719 97.226562 C 159.144531 98.464844 158.96875 99.691406 158.730469 100.910156 C 158.492188 102.128906 158.195312 103.332031 157.839844 104.523438 C 157.484375 105.710938 157.070312 106.878906 156.601562 108.03125 C 156.128906 109.179688 155.601562 110.300781 155.023438 111.398438 C 154.441406 112.496094 153.808594 113.5625 153.121094 114.597656 C 152.433594 115.632812 151.699219 116.628906 150.914062 117.59375 C 150.132812 118.554688 149.300781 119.476562 148.425781 120.359375 C 147.550781 121.238281 146.636719 122.074219 145.679688 122.867188 Z M 145.679688 122.867188 " fill-opacity="1" fill-rule="nonzero"/><path fill="#000f16" d="M 153.6875 77.164062 C 154.351562 78.214844 154.960938 79.292969 155.519531 80.402344 C 156.078125 81.511719 156.582031 82.644531 157.027344 83.800781 C 157.472656 84.957031 157.863281 86.136719 158.191406 87.332031 C 158.523438 88.527344 158.796875 89.738281 159.007812 90.960938 C 159.21875 92.183594 159.371094 93.414062 159.460938 94.648438 C 159.554688 95.886719 159.582031 97.125 159.550781 98.367188 C 159.523438 99.609375 159.429688 100.84375 159.277344 102.074219 C 159.125 103.308594 158.914062 104.527344 158.640625 105.738281 C 158.367188 106.949219 158.039062 108.144531 157.648438 109.320312 C 157.257812 110.5 156.8125 111.65625 156.308594 112.789062 C 155.804688 113.925781 155.246094 115.03125 154.636719 116.113281 C 154.023438 117.191406 153.359375 118.238281 152.644531 119.253906 C 151.929688 120.265625 151.167969 121.242188 150.355469 122.183594 C 149.542969 123.121094 148.6875 124.019531 147.789062 124.875 C 146.890625 125.730469 145.949219 126.539062 144.972656 127.304688 C 143.992188 128.066406 142.980469 128.78125 141.929688 129.445312 C 140.882812 130.105469 139.800781 130.71875 138.695312 131.273438 C 137.585938 131.832031 136.449219 132.335938 135.292969 132.78125 C 134.132812 133.226562 132.957031 133.617188 131.761719 133.945312 C 130.5625 134.277344 129.355469 134.546875 128.128906 134.761719 C 126.90625 134.972656 125.675781 135.125 124.4375 135.214844 C 123.199219 135.304688 121.960938 135.335938 120.71875 135.304688 C 119.480469 135.273438 118.242188 135.183594 117.011719 135.03125 C 115.777344 134.878906 114.558594 134.667969 113.34375 134.394531 C 112.132812 134.121094 110.9375 133.792969 109.761719 133.402344 C 108.582031 133.011719 107.425781 132.566406 106.289062 132.0625 C 105.15625 131.558594 104.046875 131.003906 102.96875 130.390625 C 101.886719 129.777344 100.839844 129.113281 99.824219 128.398438 C 98.8125 127.683594 97.835938 126.921875 96.894531 126.113281 C 95.953125 125.300781 95.054688 124.445312 94.199219 123.546875 C 93.34375 122.648438 92.535156 121.710938 91.773438 120.730469 C 91.007812 119.753906 90.292969 118.738281 89.628906 117.691406 C 88.964844 116.640625 88.355469 115.5625 87.796875 114.457031 C 87.238281 113.347656 86.738281 112.214844 86.292969 111.054688 C 85.84375 109.898438 85.457031 108.722656 85.125 107.523438 C 84.792969 106.328125 84.523438 105.121094 84.3125 103.898438 C 84.097656 102.675781 83.949219 101.445312 83.855469 100.207031 C 83.765625 98.96875 83.734375 97.730469 83.765625 96.488281 C 83.796875 95.25 83.886719 94.011719 84.039062 92.78125 C 84.191406 91.550781 84.40625 90.328125 84.679688 89.117188 C 84.949219 87.90625 85.28125 86.714844 85.671875 85.535156 C 86.058594 84.355469 86.507812 83.199219 87.011719 82.066406 C 87.511719 80.933594 88.070312 79.824219 88.683594 78.746094 C 89.296875 77.664062 89.960938 76.617188 90.675781 75.605469 C 91.390625 74.589844 92.152344 73.613281 92.964844 72.675781 C 93.773438 71.734375 94.628906 70.835938 95.527344 69.980469 C 96.429688 69.125 97.367188 68.316406 98.347656 67.554688 C 99.324219 66.789062 100.339844 66.078125 101.386719 65.414062 C 102.4375 64.75 103.515625 64.140625 104.625 63.582031 C 105.734375 63.023438 106.867188 62.523438 108.027344 62.074219 C 109.183594 61.628906 110.363281 61.242188 111.558594 60.910156 C 112.753906 60.578125 113.964844 60.308594 115.1875 60.097656 C 116.410156 59.882812 117.640625 59.734375 118.878906 59.640625 C 120.117188 59.550781 121.359375 59.519531 122.597656 59.550781 C 123.839844 59.582031 125.078125 59.675781 126.308594 59.824219 C 127.539062 59.976562 128.761719 60.191406 129.972656 60.460938 C 131.183594 60.734375 132.378906 61.066406 133.558594 61.457031 C 134.738281 61.84375 135.894531 62.289062 137.027344 62.792969 C 138.164062 63.296875 139.269531 63.855469 140.351562 64.464844 C 141.429688 65.078125 142.476562 65.742188 143.492188 66.457031 C 144.507812 67.171875 145.484375 67.933594 146.425781 68.746094 C 147.363281 69.554688 148.261719 70.410156 149.117188 71.308594 C 149.972656 72.207031 150.785156 73.148438 151.546875 74.125 C 152.308594 75.105469 153.023438 76.117188 153.6875 77.164062 Z M 153.6875 77.164062 " fill-opacity="1" fill-rule="nonzero"/><path fill="#ffffff" d="M 36.449219 167.875 C 36.199219 168.082031 35.921875 168.234375 35.609375 168.332031 C 35.300781 168.425781 34.980469 168.457031 34.660156 168.425781 C 34.335938 168.398438 34.03125 168.304688 33.742188 168.152344 C 33.457031 168 33.207031 167.800781 33 167.550781 C 32.792969 167.296875 32.644531 167.019531 32.546875 166.707031 C 32.453125 166.398438 32.417969 166.078125 32.449219 165.757812 C 32.480469 165.433594 32.570312 165.128906 32.722656 164.839844 C 32.875 164.550781 33.074219 164.304688 33.324219 164.097656 L 77.476562 127.609375 C 77.730469 127.402344 78.007812 127.25 78.320312 127.152344 C 78.632812 127.058594 78.949219 127.027344 79.273438 127.054688 C 79.597656 127.085938 79.902344 127.179688 80.1875 127.332031 C 80.476562 127.484375 80.722656 127.683594 80.929688 127.933594 C 81.140625 128.183594 81.289062 128.464844 81.386719 128.777344 C 81.480469 129.085938 81.515625 129.40625 81.484375 129.730469 C 81.453125 130.050781 81.359375 130.359375 81.207031 130.644531 C 81.054688 130.933594 80.855469 131.179688 80.605469 131.386719 Z M 36.449219 167.875 " fill-opacity="0.3" fill-rule="nonzero"/><path fill="#3aedb1" d="M 144.832031 102.851562 C 144.410156 102.851562 144.007812 102.773438 143.621094 102.613281 C 143.230469 102.453125 142.886719 102.226562 142.589844 101.933594 C 142.292969 101.636719 142.0625 101.296875 141.898438 100.910156 C 141.734375 100.523438 141.648438 100.121094 141.644531 99.699219 C 141.453125 96.949219 140.632812 94.398438 139.1875 92.050781 C 136.15625 87.238281 130.804688 84.796875 123.265625 84.796875 L 123.113281 84.796875 C 106.84375 84.867188 104.605469 98.496094 104.519531 99.078125 C 104.457031 99.496094 104.316406 99.886719 104.097656 100.25 C 103.878906 100.613281 103.597656 100.917969 103.257812 101.171875 C 102.917969 101.421875 102.542969 101.597656 102.132812 101.699219 C 101.722656 101.804688 101.308594 101.824219 100.886719 101.757812 C 100.46875 101.695312 100.078125 101.554688 99.714844 101.335938 C 99.355469 101.117188 99.046875 100.839844 98.796875 100.5 C 98.546875 100.160156 98.367188 99.78125 98.265625 99.371094 C 98.164062 98.960938 98.148438 98.546875 98.210938 98.128906 C 99.230469 91.347656 105.742188 78.503906 123.082031 78.425781 L 123.261719 78.425781 C 147.492188 78.425781 148.011719 99.417969 148.015625 99.625 C 148.019531 100.046875 147.945312 100.457031 147.789062 100.847656 C 147.628906 101.242188 147.402344 101.589844 147.105469 101.890625 C 146.8125 102.191406 146.46875 102.425781 146.082031 102.59375 C 145.691406 102.757812 145.285156 102.84375 144.863281 102.847656 Z M 144.832031 102.851562 " fill-opacity="1" fill-rule="nonzero"/><path fill="#ffffff" d="M 130.367188 71.597656 C 130.003906 67.0625 124.324219 66.519531 120.90625 66.339844 C 117.414062 66.160156 112.492188 66.339844 103.613281 72.058594 C 97.582031 75.929688 92.417969 83.652344 91.214844 90.84375 C 90.398438 95.777344 90.460938 102.914062 94.625 106.484375 C 98.621094 109.902344 104.996094 107.960938 107.710938 103.910156 C 110.574219 99.636719 109.722656 93.664062 111.382812 88.886719 C 113.300781 83.371094 115.882812 80.109375 121.167969 78.226562 C 124.332031 77.113281 130.738281 76.25 130.367188 71.597656 Z M 130.367188 71.597656 " fill-opacity="0.3" fill-rule="nonzero"/><path fill="#d5e9f2" d="M 249.898438 194.769531 C 249.898438 194.769531 267.246094 215.117188 275.558594 221.078125 C 281.867188 225.605469 287.640625 202.339844 266.015625 180.847656 C 244.863281 159.832031 227.160156 155.957031 227.160156 155.957031 Z M 249.898438 194.769531 " fill-opacity="1" fill-rule="nonzero"/><path fill="#a8d7e9" d="M 266.015625 180.847656 C 244.863281 159.832031 227.160156 155.957031 227.160156 155.957031 L 229.054688 159.1875 C 235.832031 162.917969 244.542969 168.871094 253.925781 178.195312 C 268.457031 192.632812 270.613281 207.871094 268.554688 214.945312 C 270.746094 217.152344 273.082031 219.195312 275.558594 221.078125 C 281.855469 225.605469 287.640625 202.339844 266.015625 180.847656 Z M 266.015625 180.847656 " fill-opacity="1" fill-rule="nonzero"/></svg>