<svg xmlns="http://www.w3.org/2000/svg" xmlns:xlink="http://www.w3.org/1999/xlink" width="600" zoomAndPan="magnify" viewBox="0 0 450 149.999998" height="200" preserveAspectRatio="xMidYMid meet" version="1.0"><defs><g/><clipPath id="064f028f67"><path d="M 42 127 L 104 127 L 104 136.890625 L 42 136.890625 Z M 42 127 " clip-rule="nonzero"/></clipPath><clipPath id="d7801f4dc0"><path d="M 64 6.722656 L 70 6.722656 L 70 12 L 64 12 Z M 64 6.722656 " clip-rule="nonzero"/></clipPath><clipPath id="e6a5f40195"><path d="M 5.296875 52 L 41 52 L 41 84 L 5.296875 84 Z M 5.296875 52 " clip-rule="nonzero"/></clipPath><clipPath id="9c274503b7"><path d="M 5.296875 58 L 41 58 L 41 84 L 5.296875 84 Z M 5.296875 58 " clip-rule="nonzero"/></clipPath></defs><g fill="#000000" fill-opacity="1"><g transform="translate(121.840389, 113.444178)"><g><path d="M 32.078125 1.375 C 26.847656 1.375 22.113281 0.351562 17.875 -1.6875 C 13.644531 -3.738281 10.273438 -6.828125 7.765625 -10.953125 C 5.265625 -15.085938 4.015625 -20.117188 4.015625 -26.046875 C 4.015625 -35.566406 6.554688 -42.78125 11.640625 -47.6875 C 16.722656 -52.59375 23.5 -55.046875 31.96875 -55.046875 C 34.9375 -55.046875 37.9375 -54.742188 40.96875 -54.140625 C 44 -53.546875 46.679688 -52.71875 49.015625 -51.65625 L 49.015625 -38.109375 C 46.117188 -39.378906 43.539062 -40.347656 41.28125 -41.015625 C 39.019531 -41.691406 36.765625 -42.03125 34.515625 -42.03125 C 29.847656 -42.03125 26.207031 -40.878906 23.59375 -38.578125 C 20.988281 -36.285156 19.6875 -32.707031 19.6875 -27.84375 C 19.6875 -22.40625 20.90625 -18.378906 23.34375 -15.765625 C 25.78125 -13.160156 29.75 -11.859375 35.25 -11.859375 C 39.414062 -11.859375 44.039062 -13.269531 49.125 -16.09375 L 49.125 -2.640625 C 46.582031 -1.304688 43.953125 -0.304688 41.234375 0.359375 C 38.515625 1.035156 35.460938 1.375 32.078125 1.375 Z M 32.078125 1.375 "/></g></g></g><g fill="#000000" fill-opacity="1"><g transform="translate(169.685548, 113.444178)"><g><path d="M 38 -55.046875 C 44.207031 -55.046875 49.039062 -53.492188 52.5 -50.390625 C 55.957031 -47.285156 57.6875 -42.203125 57.6875 -35.140625 L 57.6875 0 L 41.921875 0 L 41.921875 -31.859375 C 41.921875 -38.640625 38.53125 -42.03125 31.75 -42.03125 C 30.132812 -42.03125 28.476562 -41.78125 26.78125 -41.28125 C 25.082031 -40.789062 23.773438 -40.191406 22.859375 -39.484375 L 22.65625 0 L 6.984375 0 L 6.984375 -74.734375 L 22.859375 -74.734375 L 22.859375 -51.125 C 27.734375 -53.738281 32.78125 -55.046875 38 -55.046875 Z M 38 -55.046875 "/></g></g></g><g fill="#000000" fill-opacity="1"><g transform="translate(229.068704, 113.444178)"><g><path d="M 30.375 -55.15625 C 36.238281 -55.15625 41.566406 -53.796875 46.359375 -51.078125 C 51.160156 -48.359375 53.5625 -43.472656 53.5625 -36.421875 L 53.453125 -11.109375 C 53.390625 -6.671875 51.164062 -3.441406 46.78125 -1.421875 C 42.40625 0.585938 36.019531 1.59375 27.625 1.59375 C 11.957031 1.59375 4.125 -4.507812 4.125 -16.71875 C 4.125 -21.875 5.726562 -25.898438 8.9375 -28.796875 C 12.15625 -31.691406 16.9375 -33.140625 23.28125 -33.140625 C 25.894531 -33.140625 28.507812 -32.800781 31.125 -32.125 C 33.738281 -31.457031 35.992188 -30.59375 37.890625 -29.53125 L 37.890625 -32.921875 C 37.890625 -39.054688 33.941406 -42.125 26.046875 -42.125 C 23.003906 -42.125 19.878906 -41.578125 16.671875 -40.484375 C 13.460938 -39.390625 10.90625 -38.066406 9 -36.515625 L 9 -50.5 C 10.90625 -51.769531 13.816406 -52.863281 17.734375 -53.78125 C 21.648438 -54.695312 25.863281 -55.15625 30.375 -55.15625 Z M 28.15625 -9.53125 C 31.820312 -9.53125 34.359375 -9.773438 35.765625 -10.265625 C 37.179688 -10.765625 37.890625 -11.753906 37.890625 -13.234375 L 37.890625 -21.484375 C 35.421875 -22.335938 32.707031 -22.765625 29.75 -22.765625 C 26.289062 -22.765625 23.765625 -22.25 22.171875 -21.21875 C 20.585938 -20.195312 19.796875 -18.59375 19.796875 -16.40625 C 19.796875 -14.363281 20.625 -12.707031 22.28125 -11.4375 C 23.9375 -10.164062 25.894531 -9.53125 28.15625 -9.53125 Z M 28.15625 -9.53125 "/></g></g></g><g fill="#000000" fill-opacity="1"><g transform="translate(284.323587, 113.444178)"><g><path d="M 28.90625 2.109375 C 22.757812 2.109375 18.148438 0.664062 15.078125 -2.21875 C 12.015625 -5.113281 10.484375 -9.28125 10.484375 -14.71875 L 10.484375 -41.5 L 2.640625 -41.5 L 2.640625 -53.5625 L 10.484375 -53.5625 L 10.484375 -68.28125 L 27 -68.28125 L 27 -53.5625 L 38.75 -53.5625 L 38.75 -41.5 L 27 -41.5 L 27 -16.71875 C 27 -14.882812 27.382812 -13.523438 28.15625 -12.640625 C 28.9375 -11.765625 30.242188 -11.328125 32.078125 -11.328125 C 33.203125 -11.328125 34.363281 -11.519531 35.5625 -11.90625 C 36.769531 -12.289062 37.832031 -12.835938 38.75 -13.546875 L 38.75 -0.109375 C 36.0625 1.367188 32.78125 2.109375 28.90625 2.109375 Z M 28.90625 2.109375 "/></g></g></g><g fill="#000000" fill-opacity="1"><g transform="translate(322.747818, 113.444178)"><g><path d="M 63.09375 -53.5625 L 40.75 0 L 24.984375 0 L 2.640625 -53.5625 L 19.6875 -53.5625 L 33.875 -17.359375 L 46.46875 -53.5625 Z M 63.09375 -53.5625 "/></g></g></g><g fill="#000000" fill-opacity="1"><g transform="translate(383.189506, 113.444178)"><g><path d="M 6.984375 -49.015625 C 9.734375 -50.492188 13.929688 -51.867188 19.578125 -53.140625 C 25.222656 -54.410156 30.269531 -55.046875 34.71875 -55.046875 C 42.269531 -55.046875 47.953125 -53.5625 51.765625 -50.59375 C 55.578125 -47.632812 57.484375 -42.765625 57.484375 -35.984375 L 57.484375 0 L 41.703125 0 L 41.703125 -32.8125 C 41.703125 -38.957031 38.242188 -42.03125 31.328125 -42.03125 C 29.773438 -42.03125 28.1875 -41.851562 26.5625 -41.5 C 24.945312 -41.144531 23.679688 -40.71875 22.765625 -40.21875 L 22.765625 0 L 6.984375 0 Z M 6.984375 -49.015625 "/></g></g></g><g clip-path="url(#064f028f67)"><path fill="#2085b7" d="M 103.09375 132.21875 C 103.09375 132.371094 103.046875 132.523438 102.949219 132.675781 C 102.851562 132.828125 102.707031 132.980469 102.515625 133.132812 C 102.324219 133.28125 102.085938 133.429688 101.800781 133.578125 C 101.511719 133.722656 101.179688 133.867188 100.804688 134.007812 C 100.425781 134.152344 100.007812 134.289062 99.542969 134.425781 C 99.078125 134.558594 98.574219 134.691406 98.023438 134.816406 C 97.476562 134.945312 96.890625 135.066406 96.265625 135.1875 C 95.640625 135.304688 94.980469 135.417969 94.285156 135.527344 C 93.589844 135.636719 92.859375 135.738281 92.097656 135.835938 C 91.335938 135.933594 90.546875 136.023438 89.726562 136.109375 C 88.90625 136.195312 88.0625 136.273438 87.195312 136.34375 C 86.324219 136.417969 85.4375 136.480469 84.527344 136.539062 C 83.617188 136.597656 82.691406 136.652344 81.746094 136.695312 C 80.804688 136.738281 79.851562 136.777344 78.882812 136.808594 C 77.917969 136.835938 76.945312 136.859375 75.964844 136.875 C 74.984375 136.890625 74 136.898438 73.015625 136.898438 C 72.03125 136.898438 71.046875 136.890625 70.066406 136.875 C 69.089844 136.859375 68.113281 136.835938 67.148438 136.808594 C 66.183594 136.777344 65.226562 136.738281 64.285156 136.695312 C 63.34375 136.652344 62.417969 136.597656 61.507812 136.539062 C 60.597656 136.480469 59.707031 136.417969 58.835938 136.34375 C 57.96875 136.273438 57.125 136.195312 56.304688 136.109375 C 55.488281 136.023438 54.695312 135.933594 53.933594 135.835938 C 53.171875 135.738281 52.445312 135.636719 51.75 135.527344 C 51.050781 135.417969 50.390625 135.304688 49.765625 135.1875 C 49.140625 135.066406 48.554688 134.945312 48.007812 134.816406 C 47.460938 134.691406 46.953125 134.558594 46.488281 134.425781 C 46.027344 134.289062 45.605469 134.152344 45.226562 134.007812 C 44.851562 133.867188 44.519531 133.722656 44.234375 133.578125 C 43.949219 133.429688 43.707031 133.28125 43.515625 133.132812 C 43.324219 132.980469 43.179688 132.828125 43.082031 132.675781 C 42.988281 132.523438 42.9375 132.371094 42.9375 132.21875 C 42.9375 132.066406 42.988281 131.914062 43.082031 131.761719 C 43.179688 131.609375 43.324219 131.457031 43.515625 131.304688 C 43.707031 131.15625 43.949219 131.007812 44.234375 130.859375 C 44.519531 130.714844 44.851562 130.570312 45.226562 130.429688 C 45.605469 130.289062 46.027344 130.148438 46.488281 130.015625 C 46.953125 129.878906 47.460938 129.746094 48.007812 129.621094 C 48.554688 129.492188 49.140625 129.371094 49.765625 129.25 C 50.390625 129.132812 51.050781 129.019531 51.75 128.910156 C 52.445312 128.804688 53.171875 128.699219 53.933594 128.601562 C 54.695312 128.507812 55.488281 128.414062 56.304688 128.328125 C 57.125 128.246094 57.96875 128.164062 58.835938 128.09375 C 59.707031 128.023438 60.597656 127.957031 61.507812 127.898438 C 62.417969 127.839844 63.34375 127.789062 64.285156 127.742188 C 65.226562 127.699219 66.183594 127.660156 67.148438 127.632812 C 68.113281 127.601562 69.089844 127.578125 70.066406 127.5625 C 71.046875 127.550781 72.03125 127.542969 73.015625 127.542969 C 74 127.542969 74.984375 127.550781 75.964844 127.5625 C 76.945312 127.578125 77.917969 127.601562 78.882812 127.632812 C 79.851562 127.660156 80.804688 127.699219 81.746094 127.742188 C 82.691406 127.789062 83.617188 127.839844 84.527344 127.898438 C 85.4375 127.957031 86.324219 128.023438 87.195312 128.09375 C 88.0625 128.164062 88.90625 128.246094 89.726562 128.328125 C 90.546875 128.414062 91.335938 128.507812 92.097656 128.601562 C 92.859375 128.699219 93.589844 128.804688 94.285156 128.910156 C 94.980469 129.019531 95.640625 129.132812 96.265625 129.25 C 96.890625 129.371094 97.476562 129.492188 98.023438 129.621094 C 98.574219 129.746094 99.078125 129.878906 99.542969 130.015625 C 100.007812 130.148438 100.425781 130.289062 100.804688 130.429688 C 101.179688 130.570312 101.511719 130.714844 101.800781 130.859375 C 102.085938 131.007812 102.324219 131.15625 102.515625 131.304688 C 102.707031 131.457031 102.851562 131.609375 102.949219 131.761719 C 103.046875 131.914062 103.09375 132.066406 103.09375 132.21875 Z M 103.09375 132.21875 " fill-opacity="1" fill-rule="nonzero"/></g><path fill="#d5e9f2" d="M 94.632812 35.289062 C 86.816406 23.96875 67.808594 23.96875 67.808594 23.96875 C 67.808594 23.96875 48.800781 23.96875 40.984375 35.289062 C 33.8125 45.675781 33.878906 59.875 33.878906 59.875 L 40.808594 68.71875 L 94.808594 68.71875 L 101.738281 59.875 C 101.738281 59.875 101.804688 45.675781 94.632812 35.289062 Z M 94.632812 35.289062 " fill-opacity="1" fill-rule="nonzero"/><path fill="#a8d7e9" d="M 94.640625 35.289062 C 91.578125 30.855469 86.792969 28.152344 82.109375 26.511719 C 84.535156 28.011719 86.734375 29.921875 88.425781 32.367188 C 95.597656 42.757812 95.535156 56.953125 95.535156 56.953125 L 88.609375 65.796875 L 38.535156 65.796875 L 40.820312 68.71875 L 94.820312 68.71875 L 101.746094 59.875 C 101.746094 59.875 101.816406 45.675781 94.640625 35.289062 Z M 94.640625 35.289062 " fill-opacity="1" fill-rule="nonzero"/><path fill="#002b43" d="M 85.039062 37.589844 C 77.757812 32.105469 57.859375 32.105469 50.578125 37.589844 C 42.671875 43.542969 42.941406 57.753906 42.941406 57.753906 L 92.675781 57.753906 C 92.675781 57.753906 92.945312 43.539062 85.039062 37.589844 Z M 85.039062 37.589844 " fill-opacity="1" fill-rule="nonzero"/><path fill="#000f16" d="M 43.148438 57.75 C 43.636719 53.117188 45.25 45.355469 50.578125 41.34375 C 57.859375 35.863281 77.757812 35.863281 85.039062 41.34375 C 90.367188 45.355469 91.980469 53.113281 92.46875 57.75 L 92.675781 57.75 C 92.675781 57.75 92.945312 43.539062 85.039062 37.585938 C 77.757812 32.105469 57.859375 32.105469 50.578125 37.589844 C 42.671875 43.542969 42.941406 57.753906 42.941406 57.753906 Z M 43.148438 57.75 " fill-opacity="1" fill-rule="nonzero"/><path fill="#d5e9f2" d="M 61.859375 21.3125 L 73.761719 21.3125 C 73.902344 21.3125 74.039062 21.339844 74.167969 21.394531 C 74.300781 21.449219 74.414062 21.527344 74.515625 21.625 C 74.613281 21.722656 74.691406 21.839844 74.746094 21.96875 C 74.800781 22.097656 74.828125 22.234375 74.828125 22.375 L 74.828125 26.089844 C 74.828125 26.230469 74.800781 26.367188 74.746094 26.496094 C 74.691406 26.625 74.613281 26.742188 74.515625 26.839844 C 74.414062 26.941406 74.300781 27.015625 74.167969 27.070312 C 74.039062 27.125 73.902344 27.152344 73.761719 27.152344 L 61.859375 27.152344 C 61.71875 27.152344 61.582031 27.125 61.449219 27.070312 C 61.320312 27.015625 61.203125 26.941406 61.105469 26.839844 C 61.003906 26.742188 60.929688 26.625 60.875 26.496094 C 60.820312 26.367188 60.792969 26.230469 60.792969 26.089844 L 60.792969 22.375 C 60.792969 22.234375 60.820312 22.097656 60.875 21.96875 C 60.929688 21.839844 61.003906 21.722656 61.105469 21.625 C 61.203125 21.527344 61.320312 21.449219 61.449219 21.394531 C 61.582031 21.339844 61.71875 21.3125 61.859375 21.3125 Z M 61.859375 21.3125 " fill-opacity="1" fill-rule="nonzero"/><path fill="#d5e9f2" d="M 64.640625 24.144531 L 66.238281 9.285156 L 68.371094 9.285156 L 70.976562 24.230469 Z M 64.640625 24.144531 " fill-opacity="1" fill-rule="nonzero"/><g clip-path="url(#d7801f4dc0)"><path fill="#d5e9f2" d="M 69.941406 9.28125 C 69.941406 9.617188 69.875 9.945312 69.746094 10.257812 C 69.613281 10.570312 69.429688 10.847656 69.1875 11.089844 C 68.945312 11.328125 68.667969 11.511719 68.355469 11.644531 C 68.039062 11.773438 67.710938 11.835938 67.371094 11.835938 C 67.03125 11.835938 66.703125 11.773438 66.386719 11.644531 C 66.074219 11.511719 65.796875 11.328125 65.554688 11.089844 C 65.3125 10.847656 65.128906 10.570312 64.996094 10.257812 C 64.867188 9.945312 64.800781 9.617188 64.800781 9.28125 C 64.800781 8.941406 64.867188 8.613281 64.996094 8.300781 C 65.128906 7.988281 65.3125 7.710938 65.554688 7.472656 C 65.796875 7.230469 66.074219 7.046875 66.386719 6.917969 C 66.703125 6.785156 67.03125 6.722656 67.371094 6.722656 C 67.710938 6.722656 68.039062 6.785156 68.355469 6.917969 C 68.667969 7.046875 68.945312 7.230469 69.1875 7.472656 C 69.429688 7.710938 69.613281 7.988281 69.746094 8.300781 C 69.875 8.613281 69.941406 8.941406 69.941406 9.28125 Z M 69.941406 9.28125 " fill-opacity="1" fill-rule="nonzero"/></g><path fill="#a8d7e9" d="M 68.972656 7.28125 C 69.066406 7.476562 69.136719 7.683594 69.179688 7.894531 C 69.222656 8.109375 69.238281 8.324219 69.226562 8.539062 C 69.214844 8.757812 69.175781 8.96875 69.109375 9.175781 C 69.042969 9.382812 68.953125 9.578125 68.835938 9.761719 C 68.71875 9.945312 68.582031 10.113281 68.425781 10.261719 C 68.265625 10.414062 68.089844 10.539062 67.902344 10.644531 C 67.710938 10.75 67.507812 10.832031 67.296875 10.882812 C 67.085938 10.9375 66.871094 10.964844 66.652344 10.964844 C 66.054688 10.964844 65.519531 10.78125 65.050781 10.40625 C 65.136719 10.578125 65.238281 10.734375 65.359375 10.882812 C 65.480469 11.03125 65.617188 11.164062 65.769531 11.28125 C 65.921875 11.398438 66.082031 11.5 66.253906 11.582031 C 66.429688 11.664062 66.609375 11.722656 66.796875 11.765625 C 66.984375 11.804688 67.171875 11.824219 67.367188 11.824219 C 67.558594 11.824219 67.746094 11.800781 67.933594 11.757812 C 68.121094 11.714844 68.300781 11.652344 68.472656 11.570312 C 68.644531 11.484375 68.804688 11.382812 68.957031 11.265625 C 69.105469 11.144531 69.238281 11.011719 69.359375 10.863281 C 69.480469 10.714844 69.582031 10.550781 69.664062 10.378906 C 69.746094 10.207031 69.8125 10.03125 69.855469 9.84375 C 69.898438 9.65625 69.917969 9.46875 69.921875 9.277344 C 69.921875 9.085938 69.902344 8.898438 69.859375 8.710938 C 69.816406 8.527344 69.753906 8.347656 69.671875 8.171875 C 69.59375 8 69.492188 7.839844 69.375 7.6875 C 69.253906 7.539062 69.121094 7.402344 68.972656 7.28125 Z M 68.972656 7.28125 " fill-opacity="1" fill-rule="nonzero"/><path fill="#a8d7e9" d="M 40.808594 68.71875 L 94.808594 68.71875 L 101.738281 59.875 L 33.878906 59.875 Z M 40.808594 68.71875 " fill-opacity="1" fill-rule="nonzero"/><path fill="#a8d7e9" d="M 74.828125 24.351562 C 74.828125 24.726562 74.585938 25.035156 74.292969 25.035156 L 68.34375 25.035156 C 68.046875 25.035156 67.808594 24.734375 67.808594 24.351562 L 67.808594 21.988281 C 67.808594 21.617188 68.046875 21.308594 68.34375 21.308594 L 74.300781 21.308594 C 74.59375 21.308594 74.832031 21.609375 74.832031 21.988281 Z M 74.828125 24.351562 " fill-opacity="1" fill-rule="nonzero"/><path fill="#ffffff" d="M 57.171875 28.847656 C 56.308594 27.199219 52.390625 28.140625 51.113281 28.742188 C 50.066406 29.234375 48.175781 30.324219 46.96875 31.472656 C 46 32.238281 45.148438 33.121094 44.414062 34.109375 C 43.796875 34.9375 42.632812 36.640625 43.386719 37.726562 C 44.207031 38.921875 45.59375 37.886719 46.285156 37.195312 C 48.078125 35.402344 49.453125 33.480469 51.886719 32.382812 C 53.082031 31.851562 58.199219 30.789062 57.171875 28.847656 Z M 57.171875 28.847656 " fill-opacity="1" fill-rule="nonzero"/><path fill="#ffffff" d="M 66.339844 7.808594 C 65.125 8.101562 65.589844 10.625 67.082031 9.265625 C 68.269531 8.183594 67.027344 7.503906 66.339844 7.808594 Z M 66.339844 7.808594 " fill-opacity="1" fill-rule="nonzero"/><path fill="#d5e9f2" d="M 104.613281 88.75 L 94.0625 70.628906 L 41.554688 70.628906 L 31 88.75 C 31 88.75 31.453125 96.300781 34 103.203125 C 37.910156 113.816406 41.640625 118.0625 41.640625 118.0625 L 54.558594 123.027344 L 67.691406 124.226562 L 67.691406 124.25 C 67.691406 124.25 67.777344 124.238281 67.808594 124.238281 C 67.839844 124.238281 67.925781 124.25 67.925781 124.25 L 67.925781 124.226562 L 81.058594 123.027344 L 93.976562 118.058594 C 93.976562 118.058594 98.664062 112.046875 101.621094 103.199219 C 103.953125 96.230469 104.613281 88.75 104.613281 88.75 Z M 104.613281 88.75 " fill-opacity="1" fill-rule="nonzero"/><path fill="#a8d7e9" d="M 94.0625 70.628906 L 81.628906 70.628906 L 92.183594 88.75 C 92.183594 88.75 91.519531 96.226562 89.1875 103.203125 C 86.226562 112.046875 84.902344 115.570312 81.542969 118.0625 C 78.765625 120.125 68.625 123.027344 68.625 123.027344 L 61.589844 123.671875 L 67.691406 124.226562 L 67.691406 124.25 C 67.691406 124.25 67.777344 124.238281 67.808594 124.238281 C 67.839844 124.238281 67.925781 124.25 67.925781 124.25 L 67.925781 124.226562 L 81.058594 123.027344 L 93.976562 118.058594 C 93.976562 118.058594 98.664062 112.046875 101.621094 103.199219 C 103.953125 96.230469 104.613281 88.75 104.613281 88.75 Z M 94.0625 70.628906 " fill-opacity="1" fill-rule="nonzero"/><path fill="#a8d7e9" d="M 31 88.75 L 104.617188 88.75 L 101.746094 94.1875 Z M 31 88.75 " fill-opacity="1" fill-rule="nonzero"/><path fill="#ffffff" d="M 45.777344 100.769531 C 45.570312 98.140625 47.371094 94.515625 44.355469 93.125 C 42.816406 92.414062 40.191406 92.121094 38.992188 93.652344 C 38.546875 94.25 38.3125 94.921875 38.289062 95.664062 C 37.855469 97.539062 38.871094 100.285156 39.34375 101.972656 C 39.902344 103.953125 41.835938 110.914062 45.394531 109.019531 C 47.824219 107.71875 45.933594 102.71875 45.777344 100.769531 Z M 45.777344 100.769531 " fill-opacity="1" fill-rule="nonzero"/><path fill="#ffffff" d="M 49.652344 74.410156 C 48.050781 72.136719 45.796875 72.894531 44.195312 74.546875 C 40.625 76.707031 36.828125 85.542969 42.230469 86.410156 C 45.339844 86.90625 46.292969 83.132812 47.347656 81.09375 C 48.3125 79.222656 51.222656 76.640625 49.652344 74.410156 Z M 49.652344 74.410156 " fill-opacity="1" fill-rule="nonzero"/><path fill="#d5e9f2" d="M 39.53125 70.628906 C 39.53125 70.628906 16.035156 67.261719 12.5 68.71875 C 8.964844 70.175781 7.835938 75.21875 16.425781 80.375 C 24.761719 85.378906 29.613281 86.738281 29.613281 86.738281 Z M 39.53125 70.628906 " fill-opacity="1" fill-rule="nonzero"/><path fill="#a8d7e9" d="M 12.226562 68.71875 C 12.582031 68.570312 16.058594 68.222656 16.765625 68.1875 C 17.914062 70.828125 13.613281 73.449219 18.902344 76.625 C 24.625 80.058594 28.96875 82.035156 32.945312 81.324219 L 29.617188 86.738281 C 29.617188 86.738281 24.761719 85.375 16.429688 80.375 C 7.835938 75.21875 8.691406 70.179688 12.226562 68.71875 Z M 12.226562 68.71875 " fill-opacity="1" fill-rule="nonzero"/><path fill="#d5e9f2" d="M 41.492188 119.628906 C 41.492188 119.628906 46.179688 131.804688 50.109375 132.207031 C 54.035156 132.605469 54.148438 124.257812 54.148438 124.257812 Z M 41.492188 119.628906 " fill-opacity="1" fill-rule="nonzero"/><path fill="#a8d7e9" d="M 50.988281 123.054688 C 50.945312 124.234375 50.582031 129.996094 47.820312 130.726562 C 48.628906 131.566406 49.449219 132.125 50.242188 132.207031 C 54.167969 132.601562 54.285156 124.257812 54.285156 124.257812 Z M 50.988281 123.054688 " fill-opacity="1" fill-rule="nonzero"/><path fill="#d5e9f2" d="M 82.390625 124.257812 C 82.390625 124.257812 88.386719 133.429688 96.113281 131.515625 C 99.34375 130.710938 94.25 119.628906 94.25 119.628906 Z M 82.390625 124.257812 " fill-opacity="1" fill-rule="nonzero"/><path fill="#a8d7e9" d="M 94.25 119.628906 L 91.03125 120.886719 C 92.328125 124.125 94.375 130.136719 92.027344 130.71875 C 91.417969 130.871094 90.796875 130.957031 90.164062 130.976562 C 91.953125 131.722656 93.96875 132.046875 96.113281 131.515625 C 99.34375 130.710938 94.25 119.628906 94.25 119.628906 Z M 94.25 119.628906 " fill-opacity="1" fill-rule="nonzero"/><path fill="#3aedb1" d="M 74.835938 49.90625 C 74.722656 49.902344 74.625 49.941406 74.539062 50.019531 C 74.457031 50.097656 74.414062 50.191406 74.410156 50.308594 C 74.410156 50.332031 74.335938 52.191406 73.148438 53.167969 C 72.011719 54.097656 69.957031 54.410156 68.957031 54.40625 C 68.023438 54.449219 65.902344 54.097656 64.765625 53.167969 C 63.578125 52.191406 63.503906 50.332031 63.503906 50.308594 C 63.5 50.191406 63.457031 50.09375 63.375 50.015625 C 63.289062 49.9375 63.191406 49.898438 63.074219 49.902344 C 62.960938 49.90625 62.863281 49.949219 62.785156 50.035156 C 62.707031 50.117188 62.667969 50.214844 62.671875 50.332031 C 62.671875 50.421875 62.75 52.585938 64.238281 53.808594 C 65.753906 55.050781 67.707031 55.242188 68.757812 55.242188 C 70.011719 55.242188 72.160156 55.054688 73.675781 53.808594 C 75.164062 52.585938 75.238281 50.421875 75.242188 50.332031 C 75.246094 50.214844 75.207031 50.117188 75.128906 50.035156 C 75.050781 49.949219 74.953125 49.90625 74.835938 49.90625 Z M 74.835938 49.90625 " fill-opacity="1" fill-rule="nonzero"/><path fill="#3aedb1" d="M 59.753906 46.386719 C 59.589844 46.386719 59.449219 46.332031 59.332031 46.214844 C 59.21875 46.101562 59.15625 45.964844 59.15625 45.800781 C 59.121094 45.289062 58.96875 44.8125 58.695312 44.375 C 58.128906 43.476562 57.125 43.023438 55.714844 43.023438 L 55.6875 43.023438 C 52.640625 43.035156 52.222656 45.578125 52.207031 45.683594 C 52.183594 45.847656 52.105469 45.976562 51.972656 46.074219 C 51.839844 46.175781 51.691406 46.210938 51.53125 46.1875 C 51.367188 46.164062 51.238281 46.085938 51.136719 45.957031 C 51.039062 45.824219 51.003906 45.675781 51.027344 45.515625 C 51.21875 44.25 52.4375 41.855469 55.683594 41.839844 L 55.71875 41.839844 C 60.25 41.839844 60.347656 45.753906 60.347656 45.792969 C 60.351562 45.957031 60.292969 46.097656 60.179688 46.214844 C 60.066406 46.332031 59.925781 46.394531 59.761719 46.394531 Z M 59.753906 46.386719 " fill-opacity="1" fill-rule="nonzero"/><path fill="#3aedb1" d="M 84.015625 46.386719 C 83.851562 46.386719 83.710938 46.332031 83.59375 46.21875 C 83.480469 46.101562 83.421875 45.964844 83.417969 45.800781 C 83.382812 45.289062 83.230469 44.8125 82.957031 44.375 C 82.390625 43.476562 81.390625 43.023438 79.976562 43.023438 L 79.949219 43.023438 C 76.90625 43.035156 76.484375 45.578125 76.46875 45.683594 C 76.445312 45.847656 76.367188 45.976562 76.234375 46.074219 C 76.105469 46.175781 75.957031 46.210938 75.792969 46.1875 C 75.628906 46.164062 75.5 46.085938 75.402344 45.957031 C 75.304688 45.824219 75.265625 45.675781 75.289062 45.515625 C 75.480469 44.238281 76.695312 41.851562 79.949219 41.835938 L 79.984375 41.835938 C 84.519531 41.835938 84.609375 45.75 84.609375 45.789062 C 84.609375 45.953125 84.554688 46.09375 84.441406 46.210938 C 84.324219 46.328125 84.183594 46.386719 84.019531 46.386719 Z M 84.015625 46.386719 " fill-opacity="1" fill-rule="nonzero"/><g clip-path="url(#e6a5f40195)"><path fill="#2a56f4" d="M 35.261719 52.957031 L 7.195312 76.066406 L 7.222656 76.097656 C 5.589844 77.8125 5.339844 80.335938 6.710938 81.996094 C 8.078125 83.65625 10.628906 83.871094 12.621094 82.601562 L 12.648438 82.632812 L 40.714844 59.523438 Z M 35.261719 52.957031 " fill-opacity="1" fill-rule="nonzero"/></g><g clip-path="url(#9c274503b7)"><path fill="#0643f2" d="M 39.652344 58.222656 L 13.699219 79.585938 L 13.671875 79.558594 C 11.675781 80.832031 9.136719 80.609375 7.757812 78.949219 C 7.152344 78.214844 6.855469 77.367188 6.867188 76.417969 C 5.535156 78.105469 5.402344 80.390625 6.683594 81.9375 C 8.0625 83.597656 10.601562 83.8125 12.597656 82.542969 L 12.621094 82.574219 L 40.6875 59.460938 Z M 39.652344 58.222656 " fill-opacity="1" fill-rule="nonzero"/></g><path fill="#2a56f4" d="M 64.554688 31.882812 C 65.023438 32.351562 65.472656 32.84375 65.894531 33.355469 C 66.316406 33.871094 66.714844 34.402344 67.085938 34.953125 C 67.457031 35.503906 67.796875 36.074219 68.113281 36.660156 C 68.425781 37.246094 68.710938 37.84375 68.964844 38.457031 C 69.222656 39.070312 69.445312 39.695312 69.636719 40.332031 C 69.832031 40.964844 69.992188 41.609375 70.125 42.257812 C 70.253906 42.910156 70.351562 43.566406 70.417969 44.226562 C 70.480469 44.886719 70.515625 45.550781 70.515625 46.214844 C 70.515625 46.875 70.480469 47.539062 70.417969 48.199219 C 70.351562 48.859375 70.253906 49.515625 70.125 50.167969 C 69.992188 50.816406 69.832031 51.460938 69.640625 52.097656 C 69.445312 52.730469 69.222656 53.355469 68.964844 53.96875 C 68.710938 54.582031 68.425781 55.179688 68.113281 55.765625 C 67.796875 56.351562 67.457031 56.921875 67.085938 57.472656 C 66.714844 58.023438 66.316406 58.558594 65.894531 59.070312 C 65.472656 59.582031 65.023438 60.074219 64.554688 60.542969 C 64.082031 61.011719 63.589844 61.457031 63.074219 61.878906 C 62.558594 62.300781 62.023438 62.695312 61.46875 63.0625 C 60.914062 63.433594 60.34375 63.773438 59.757812 64.085938 C 59.167969 64.398438 58.566406 64.683594 57.949219 64.9375 C 57.335938 65.191406 56.707031 65.414062 56.070312 65.605469 C 55.433594 65.800781 54.785156 65.960938 54.132812 66.089844 C 53.480469 66.21875 52.820312 66.316406 52.15625 66.382812 C 51.492188 66.445312 50.828125 66.480469 50.160156 66.480469 C 49.496094 66.480469 48.832031 66.445312 48.167969 66.382812 C 47.503906 66.316406 46.84375 66.21875 46.191406 66.089844 C 45.539062 65.960938 44.890625 65.800781 44.253906 65.605469 C 43.617188 65.414062 42.988281 65.191406 42.371094 64.9375 C 41.757812 64.683594 41.15625 64.398438 40.566406 64.085938 C 39.980469 63.773438 39.410156 63.433594 38.855469 63.0625 C 38.300781 62.695312 37.765625 62.300781 37.25 61.878906 C 36.734375 61.457031 36.242188 61.011719 35.769531 60.542969 C 35.296875 60.074219 34.851562 59.582031 34.429688 59.070312 C 34.003906 58.558594 33.609375 58.023438 33.238281 57.472656 C 32.867188 56.921875 32.527344 56.351562 32.210938 55.765625 C 31.898438 55.179688 31.613281 54.582031 31.359375 53.96875 C 31.101562 53.355469 30.878906 52.730469 30.683594 52.097656 C 30.492188 51.460938 30.328125 50.816406 30.199219 50.167969 C 30.070312 49.515625 29.972656 48.859375 29.90625 48.199219 C 29.839844 47.539062 29.808594 46.875 29.808594 46.214844 C 29.808594 45.550781 29.839844 44.886719 29.90625 44.226562 C 29.972656 43.566406 30.070312 42.910156 30.199219 42.257812 C 30.328125 41.609375 30.492188 40.964844 30.683594 40.328125 C 30.878906 39.695312 31.101562 39.070312 31.359375 38.457031 C 31.613281 37.84375 31.898438 37.246094 32.210938 36.660156 C 32.527344 36.074219 32.867188 35.503906 33.238281 34.953125 C 33.609375 34.402344 34.003906 33.871094 34.429688 33.355469 C 34.851562 32.84375 35.296875 32.351562 35.769531 31.882812 C 36.242188 31.414062 36.734375 30.96875 37.25 30.546875 C 37.765625 30.125 38.300781 29.730469 38.855469 29.363281 C 39.410156 28.992188 39.980469 28.652344 40.566406 28.339844 C 41.15625 28.027344 41.757812 27.742188 42.371094 27.488281 C 42.988281 27.234375 43.617188 27.011719 44.253906 26.820312 C 44.890625 26.625 45.539062 26.464844 46.191406 26.335938 C 46.84375 26.207031 47.503906 26.109375 48.167969 26.042969 C 48.832031 25.980469 49.496094 25.945312 50.160156 25.945312 C 50.828125 25.945312 51.492188 25.980469 52.15625 26.042969 C 52.820312 26.109375 53.480469 26.207031 54.132812 26.335938 C 54.785156 26.464844 55.433594 26.625 56.070312 26.820312 C 56.707031 27.011719 57.335938 27.234375 57.949219 27.488281 C 58.566406 27.742188 59.167969 28.027344 59.757812 28.339844 C 60.34375 28.652344 60.914062 28.992188 61.46875 29.363281 C 62.023438 29.730469 62.558594 30.125 63.074219 30.546875 C 63.589844 30.96875 64.082031 31.414062 64.554688 31.882812 Z M 64.554688 31.882812 " fill-opacity="1" fill-rule="nonzero"/><path fill="#0643f2" d="M 69.707031 40.40625 C 69.828125 41.039062 69.917969 41.671875 69.976562 42.308594 C 70.035156 42.949219 70.066406 43.589844 70.066406 44.230469 C 70.066406 44.871094 70.035156 45.511719 69.972656 46.148438 C 69.910156 46.789062 69.816406 47.421875 69.695312 48.050781 C 69.574219 48.679688 69.421875 49.304688 69.238281 49.917969 C 69.058594 50.535156 68.847656 51.136719 68.609375 51.734375 C 68.371094 52.328125 68.101562 52.910156 67.808594 53.480469 C 67.511719 54.050781 67.191406 54.605469 66.84375 55.148438 C 66.496094 55.6875 66.125 56.210938 65.726562 56.714844 C 65.328125 57.21875 64.910156 57.703125 64.464844 58.167969 C 64.019531 58.632812 63.554688 59.074219 63.070312 59.496094 C 62.585938 59.917969 62.078125 60.3125 61.554688 60.6875 C 61.03125 61.0625 60.492188 61.410156 59.933594 61.730469 C 59.378906 62.054688 58.808594 62.347656 58.222656 62.617188 C 57.636719 62.882812 57.042969 63.125 56.433594 63.335938 C 55.824219 63.546875 55.207031 63.730469 54.582031 63.882812 C 53.957031 64.039062 53.328125 64.160156 52.691406 64.253906 C 52.054688 64.351562 51.414062 64.414062 50.769531 64.445312 C 50.125 64.480469 49.484375 64.484375 48.839844 64.457031 C 48.195312 64.429688 47.554688 64.371094 46.917969 64.285156 C 46.28125 64.195312 45.648438 64.078125 45.019531 63.929688 C 44.394531 63.78125 43.777344 63.605469 43.164062 63.398438 C 42.554688 63.195312 41.957031 62.960938 41.371094 62.695312 C 40.78125 62.433594 40.207031 62.144531 39.648438 61.828125 C 39.089844 61.511719 38.546875 61.167969 38.019531 60.800781 C 37.492188 60.429688 36.980469 60.039062 36.492188 59.621094 C 36.003906 59.207031 35.535156 58.769531 35.085938 58.308594 C 34.636719 57.847656 34.210938 57.367188 33.808594 56.867188 C 33.40625 56.363281 33.03125 55.847656 32.675781 55.308594 C 32.324219 54.773438 31.996094 54.222656 31.695312 53.652344 C 31.398438 53.085938 31.125 52.507812 30.878906 51.914062 C 30.632812 51.320312 30.417969 50.71875 30.230469 50.105469 C 30.359375 50.777344 30.523438 51.441406 30.722656 52.097656 C 30.921875 52.757812 31.152344 53.402344 31.414062 54.035156 C 31.679688 54.667969 31.972656 55.289062 32.300781 55.890625 C 32.628906 56.496094 32.984375 57.082031 33.371094 57.648438 C 33.757812 58.214844 34.171875 58.761719 34.613281 59.289062 C 35.054688 59.816406 35.523438 60.316406 36.015625 60.796875 C 36.507812 61.273438 37.027344 61.726562 37.566406 62.152344 C 38.105469 62.578125 38.664062 62.976562 39.246094 63.347656 C 39.824219 63.71875 40.421875 64.054688 41.035156 64.367188 C 41.652344 64.675781 42.28125 64.953125 42.921875 65.199219 C 43.566406 65.445312 44.21875 65.65625 44.886719 65.835938 C 45.550781 66.015625 46.222656 66.164062 46.902344 66.273438 C 47.582031 66.386719 48.265625 66.464844 48.953125 66.507812 C 49.640625 66.550781 50.328125 66.558594 51.015625 66.53125 C 51.703125 66.503906 52.390625 66.441406 53.070312 66.347656 C 53.753906 66.25 54.429688 66.121094 55.097656 65.957031 C 55.765625 65.792969 56.425781 65.59375 57.074219 65.363281 C 57.722656 65.132812 58.355469 64.871094 58.976562 64.574219 C 59.601562 64.28125 60.207031 63.953125 60.792969 63.597656 C 61.382812 63.242188 61.953125 62.855469 62.5 62.441406 C 63.050781 62.03125 63.578125 61.589844 64.082031 61.121094 C 64.585938 60.65625 65.066406 60.164062 65.519531 59.648438 C 65.972656 59.132812 66.402344 58.597656 66.800781 58.039062 C 67.199219 57.480469 67.570312 56.902344 67.910156 56.304688 C 68.253906 55.710938 68.5625 55.097656 68.839844 54.46875 C 69.117188 53.84375 69.363281 53.203125 69.578125 52.550781 C 69.792969 51.898438 69.96875 51.238281 70.117188 50.566406 C 70.261719 49.898438 70.375 49.222656 70.449219 48.539062 C 70.527344 47.859375 70.570312 47.175781 70.578125 46.488281 C 70.585938 45.804688 70.554688 45.117188 70.492188 44.4375 C 70.429688 43.753906 70.335938 43.074219 70.203125 42.402344 C 70.070312 41.730469 69.90625 41.0625 69.707031 40.40625 Z M 69.707031 40.40625 " fill-opacity="1" fill-rule="nonzero"/><path fill="#0643f2" d="M 60.597656 57.21875 C 60.183594 57.5625 59.75 57.882812 59.304688 58.183594 C 58.855469 58.484375 58.394531 58.761719 57.917969 59.015625 C 57.445312 59.269531 56.957031 59.5 56.460938 59.710938 C 55.960938 59.917969 55.457031 60.097656 54.941406 60.257812 C 54.425781 60.414062 53.902344 60.546875 53.375 60.65625 C 52.84375 60.761719 52.3125 60.84375 51.773438 60.898438 C 51.238281 60.953125 50.699219 60.980469 50.160156 60.980469 C 49.621094 60.984375 49.082031 60.960938 48.542969 60.910156 C 48.007812 60.859375 47.472656 60.78125 46.945312 60.679688 C 46.414062 60.578125 45.890625 60.449219 45.375 60.292969 C 44.859375 60.140625 44.347656 59.960938 43.851562 59.757812 C 43.351562 59.554688 42.863281 59.324219 42.386719 59.074219 C 41.910156 58.824219 41.445312 58.546875 40.996094 58.253906 C 40.546875 57.957031 40.113281 57.636719 39.695312 57.296875 C 39.273438 56.957031 38.875 56.601562 38.492188 56.222656 C 38.109375 55.84375 37.746094 55.445312 37.402344 55.03125 C 37.058594 54.617188 36.734375 54.1875 36.433594 53.742188 C 36.132812 53.296875 35.851562 52.839844 35.597656 52.367188 C 35.339844 51.890625 35.109375 51.40625 34.898438 50.914062 C 34.691406 50.417969 34.507812 49.914062 34.347656 49.398438 C 34.191406 48.886719 34.058594 48.363281 33.949219 47.839844 C 33.84375 47.3125 33.761719 46.78125 33.707031 46.246094 C 33.652344 45.710938 33.625 45.175781 33.621094 44.640625 C 33.621094 44.101562 33.644531 43.566406 33.695312 43.03125 C 33.746094 42.496094 33.824219 41.964844 33.925781 41.4375 C 34.027344 40.910156 34.15625 40.390625 34.3125 39.875 C 34.46875 39.359375 34.648438 38.855469 34.851562 38.355469 C 35.054688 37.859375 35.285156 37.375 35.539062 36.898438 C 35.789062 36.421875 36.066406 35.960938 36.363281 35.515625 C 36.660156 35.066406 36.980469 34.632812 37.320312 34.21875 C 37.664062 33.800781 38.023438 33.402344 38.402344 33.019531 C 38.78125 32.640625 39.179688 32.277344 39.597656 31.933594 C 40.011719 31.59375 40.445312 31.269531 40.890625 30.972656 C 41.339844 30.671875 41.800781 30.394531 42.277344 30.136719 C 42.75 29.882812 43.238281 29.652344 43.734375 29.445312 C 44.230469 29.238281 44.738281 29.054688 45.253906 28.894531 C 45.769531 28.738281 46.292969 28.605469 46.820312 28.5 C 47.351562 28.390625 47.882812 28.3125 48.421875 28.257812 C 48.957031 28.203125 49.496094 28.171875 50.035156 28.171875 C 50.574219 28.167969 51.113281 28.195312 51.648438 28.246094 C 52.1875 28.296875 52.71875 28.371094 53.25 28.476562 C 53.78125 28.578125 54.304688 28.707031 54.820312 28.859375 C 55.335938 29.015625 55.84375 29.191406 56.34375 29.398438 C 56.84375 29.601562 57.332031 29.828125 57.808594 30.078125 C 58.285156 30.332031 58.75 30.605469 59.199219 30.902344 C 59.648438 31.199219 60.082031 31.515625 60.5 31.855469 C 60.917969 32.195312 61.320312 32.554688 61.703125 32.933594 C 62.085938 33.3125 62.449219 33.707031 62.792969 34.121094 C 63.136719 34.535156 63.460938 34.964844 63.761719 35.410156 C 64.0625 35.855469 64.34375 36.316406 64.597656 36.789062 C 64.855469 37.261719 65.085938 37.746094 65.292969 38.242188 C 65.503906 38.738281 65.6875 39.242188 65.84375 39.753906 C 66.003906 40.269531 66.136719 40.789062 66.242188 41.316406 C 66.351562 41.84375 66.433594 42.371094 66.488281 42.90625 C 66.542969 43.441406 66.570312 43.976562 66.574219 44.515625 C 66.574219 45.050781 66.550781 45.585938 66.5 46.121094 C 66.449219 46.65625 66.371094 47.1875 66.269531 47.714844 C 66.164062 48.242188 66.035156 48.765625 65.882812 49.277344 C 65.726562 49.792969 65.546875 50.300781 65.34375 50.796875 C 65.136719 51.292969 64.910156 51.78125 64.65625 52.253906 C 64.40625 52.730469 64.128906 53.191406 63.832031 53.640625 C 63.53125 54.085938 63.214844 54.519531 62.871094 54.9375 C 62.53125 55.351562 62.171875 55.75 61.792969 56.132812 C 61.410156 56.515625 61.015625 56.875 60.597656 57.21875 Z M 60.597656 57.21875 " fill-opacity="1" fill-rule="nonzero"/><path fill="#000f16" d="M 64.078125 37.441406 C 64.367188 37.894531 64.632812 38.359375 64.875 38.839844 C 65.117188 39.320312 65.335938 39.8125 65.527344 40.3125 C 65.722656 40.8125 65.890625 41.324219 66.035156 41.839844 C 66.179688 42.359375 66.296875 42.882812 66.386719 43.410156 C 66.480469 43.9375 66.546875 44.472656 66.585938 45.007812 C 66.625 45.542969 66.636719 46.078125 66.625 46.617188 C 66.613281 47.152344 66.570312 47.6875 66.507812 48.21875 C 66.441406 48.753906 66.347656 49.28125 66.230469 49.804688 C 66.109375 50.328125 65.96875 50.847656 65.796875 51.355469 C 65.628906 51.867188 65.433594 52.367188 65.214844 52.859375 C 64.996094 53.347656 64.753906 53.828125 64.488281 54.292969 C 64.222656 54.761719 63.933594 55.214844 63.625 55.652344 C 63.3125 56.09375 62.980469 56.515625 62.628906 56.921875 C 62.277344 57.328125 61.90625 57.71875 61.515625 58.085938 C 61.125 58.457031 60.714844 58.808594 60.292969 59.136719 C 59.867188 59.46875 59.425781 59.777344 58.96875 60.0625 C 58.515625 60.351562 58.046875 60.617188 57.5625 60.855469 C 57.082031 61.097656 56.589844 61.316406 56.085938 61.507812 C 55.582031 61.703125 55.070312 61.871094 54.550781 62.011719 C 54.03125 62.15625 53.503906 62.273438 52.972656 62.367188 C 52.441406 62.457031 51.910156 62.523438 51.371094 62.5625 C 50.832031 62.601562 50.292969 62.613281 49.753906 62.601562 C 49.214844 62.585938 48.679688 62.546875 48.144531 62.480469 C 47.609375 62.417969 47.078125 62.324219 46.550781 62.207031 C 46.023438 62.089844 45.507812 61.945312 44.992188 61.777344 C 44.480469 61.609375 43.980469 61.414062 43.484375 61.199219 C 42.992188 60.980469 42.511719 60.738281 42.042969 60.472656 C 41.574219 60.210938 41.117188 59.921875 40.679688 59.613281 C 40.238281 59.304688 39.8125 58.972656 39.402344 58.621094 C 38.996094 58.273438 38.605469 57.902344 38.234375 57.511719 C 37.863281 57.125 37.511719 56.71875 37.179688 56.292969 C 36.847656 55.871094 36.535156 55.433594 36.25 54.976562 C 35.960938 54.523438 35.695312 54.058594 35.453125 53.578125 C 35.210938 53.097656 34.992188 52.609375 34.796875 52.105469 C 34.605469 51.605469 34.433594 51.097656 34.292969 50.578125 C 34.148438 50.0625 34.03125 49.539062 33.9375 49.007812 C 33.84375 48.480469 33.78125 47.949219 33.738281 47.410156 C 33.699219 46.875 33.6875 46.339844 33.699219 45.804688 C 33.714844 45.265625 33.753906 44.730469 33.820312 44.199219 C 33.886719 43.664062 33.976562 43.136719 34.097656 42.613281 C 34.214844 42.089844 34.359375 41.570312 34.527344 41.0625 C 34.699219 40.550781 34.890625 40.050781 35.109375 39.5625 C 35.328125 39.070312 35.570312 38.589844 35.835938 38.125 C 36.101562 37.65625 36.390625 37.203125 36.703125 36.765625 C 37.011719 36.324219 37.34375 35.902344 37.695312 35.496094 C 38.050781 35.089844 38.421875 34.703125 38.8125 34.332031 C 39.203125 33.960938 39.609375 33.609375 40.035156 33.28125 C 40.460938 32.949219 40.902344 32.640625 41.355469 32.355469 C 41.8125 32.066406 42.28125 31.804688 42.761719 31.5625 C 43.246094 31.320312 43.738281 31.101562 44.242188 30.910156 C 44.742188 30.714844 45.253906 30.546875 45.773438 30.40625 C 46.292969 30.261719 46.820312 30.144531 47.351562 30.054688 C 47.882812 29.960938 48.417969 29.894531 48.957031 29.855469 C 49.492188 29.816406 50.03125 29.804688 50.570312 29.816406 C 51.109375 29.832031 51.648438 29.871094 52.183594 29.9375 C 52.71875 30.003906 53.25 30.09375 53.773438 30.210938 C 54.300781 30.328125 54.820312 30.472656 55.332031 30.640625 C 55.84375 30.808594 56.347656 31.003906 56.839844 31.222656 C 57.332031 31.4375 57.8125 31.679688 58.28125 31.945312 C 58.753906 32.210938 59.207031 32.496094 59.648438 32.804688 C 60.089844 33.113281 60.511719 33.445312 60.921875 33.796875 C 61.332031 34.148438 61.71875 34.515625 62.09375 34.90625 C 62.464844 35.296875 62.816406 35.703125 63.148438 36.125 C 63.480469 36.546875 63.789062 36.988281 64.078125 37.441406 Z M 64.078125 37.441406 " fill-opacity="1" fill-rule="nonzero"/><path fill="#ffffff" d="M 13.144531 76.695312 C 13.035156 76.785156 12.914062 76.851562 12.78125 76.894531 C 12.644531 76.933594 12.507812 76.949219 12.367188 76.933594 C 12.226562 76.921875 12.09375 76.882812 11.96875 76.816406 C 11.84375 76.75 11.738281 76.664062 11.648438 76.554688 C 11.558594 76.445312 11.492188 76.324219 11.449219 76.191406 C 11.40625 76.058594 11.394531 75.917969 11.40625 75.78125 C 11.421875 75.640625 11.460938 75.507812 11.523438 75.382812 C 11.589844 75.257812 11.679688 75.152344 11.789062 75.0625 L 30.96875 59.269531 C 31.078125 59.179688 31.199219 59.113281 31.335938 59.074219 C 31.46875 59.03125 31.609375 59.019531 31.75 59.03125 C 31.890625 59.042969 32.023438 59.085938 32.148438 59.148438 C 32.273438 59.214844 32.378906 59.304688 32.46875 59.410156 C 32.558594 59.519531 32.625 59.640625 32.667969 59.777344 C 32.707031 59.910156 32.722656 60.046875 32.707031 60.1875 C 32.695312 60.328125 32.65625 60.460938 32.589844 60.585938 C 32.523438 60.707031 32.4375 60.816406 32.328125 60.90625 Z M 13.144531 76.695312 " fill-opacity="0.3" fill-rule="nonzero"/><path fill="#3aedb1" d="M 60.230469 48.558594 C 60.046875 48.558594 59.871094 48.523438 59.703125 48.453125 C 59.535156 48.382812 59.386719 48.285156 59.257812 48.160156 C 59.125 48.03125 59.027344 47.882812 58.957031 47.714844 C 58.882812 47.546875 58.847656 47.375 58.847656 47.191406 C 58.761719 46.003906 58.40625 44.898438 57.777344 43.882812 C 56.460938 41.800781 54.136719 40.742188 50.863281 40.742188 L 50.792969 40.742188 C 43.726562 40.773438 42.753906 46.671875 42.714844 46.921875 C 42.6875 47.105469 42.628906 47.273438 42.53125 47.429688 C 42.4375 47.585938 42.316406 47.71875 42.167969 47.828125 C 42.019531 47.9375 41.859375 48.015625 41.679688 48.058594 C 41.5 48.101562 41.320312 48.109375 41.140625 48.082031 C 40.957031 48.054688 40.789062 47.996094 40.628906 47.902344 C 40.472656 47.804688 40.339844 47.6875 40.230469 47.539062 C 40.121094 47.390625 40.042969 47.226562 40 47.050781 C 39.957031 46.871094 39.949219 46.695312 39.976562 46.511719 C 40.417969 43.578125 43.25 38.019531 50.78125 37.984375 L 50.859375 37.984375 C 61.386719 37.984375 61.613281 47.070312 61.613281 47.160156 C 61.617188 47.34375 61.582031 47.519531 61.515625 47.691406 C 61.445312 47.859375 61.347656 48.007812 61.21875 48.140625 C 61.089844 48.269531 60.941406 48.371094 60.773438 48.445312 C 60.601562 48.515625 60.425781 48.554688 60.242188 48.554688 Z M 60.230469 48.558594 " fill-opacity="1" fill-rule="nonzero"/><path fill="#ffffff" d="M 53.945312 35.03125 C 53.789062 33.066406 51.320312 32.832031 49.835938 32.753906 C 48.316406 32.675781 46.179688 32.753906 42.324219 35.230469 C 39.703125 36.90625 37.460938 40.246094 36.9375 43.359375 C 36.582031 45.496094 36.609375 48.582031 38.417969 50.128906 C 40.152344 51.609375 42.921875 50.765625 44.101562 49.015625 C 45.347656 47.164062 44.976562 44.582031 45.699219 42.511719 C 46.53125 40.125 47.652344 38.714844 49.949219 37.898438 C 51.324219 37.417969 54.105469 37.042969 53.945312 35.03125 Z M 53.945312 35.03125 " fill-opacity="0.3" fill-rule="nonzero"/><path fill="#d5e9f2" d="M 105.875 88.335938 C 105.875 88.335938 113.410156 97.140625 117.023438 99.71875 C 119.761719 101.679688 122.273438 91.613281 112.875 82.3125 C 103.6875 73.214844 95.996094 71.539062 95.996094 71.539062 Z M 105.875 88.335938 " fill-opacity="1" fill-rule="nonzero"/><path fill="#a8d7e9" d="M 112.875 82.3125 C 103.6875 73.214844 95.996094 71.539062 95.996094 71.539062 L 96.820312 72.9375 C 99.765625 74.550781 103.546875 77.125 107.625 81.164062 C 113.9375 87.410156 114.875 94.007812 113.980469 97.066406 C 114.933594 98.023438 115.945312 98.90625 117.023438 99.71875 C 119.757812 101.679688 122.273438 91.613281 112.875 82.3125 Z M 112.875 82.3125 " fill-opacity="1" fill-rule="nonzero"/></svg>